<svg version="1.1" viewBox="0.0 0.0 406.1968503937008 125.02099737532808" fill="none" stroke="none" stroke-linecap="square" stroke-miterlimit="10" xmlns:xlink="http://www.w3.org/1999/xlink" xmlns="http://www.w3.org/2000/svg"><clipPath id="p.0"><path d="m0 0l406.19684 0l0 125.020996l-406.19684 0l0 -125.020996z" clip-rule="nonzero"/></clipPath><g clip-path="url(#p.0)"><path fill="#000000" fill-opacity="0.0" d="m0 0l406.19684 0l0 125.020996l-406.19684 0z" fill-rule="evenodd"/><g filter="url(#shadowFilter-p.1)"><use xlink:href="#p.1" transform=""/></g><defs><filter id="shadowFilter-p.1" filterUnits="userSpaceOnUse"><feGaussianBlur in="SourceAlpha" stdDeviation="2.5" result="blur"/><feComponentTransfer in="blur" color-interpolation-filters="sRGB"><feFuncR type="linear" slope="0" intercept="0.0"/><feFuncG type="linear" slope="0" intercept="0.0"/><feFuncB type="linear" slope="0" intercept="0.0"/><feFuncA type="linear" slope="0.6" intercept="0"/></feComponentTransfer></filter></defs><g id="p.1"><path fill="#000000" fill-opacity="0.0" d="m43.78478 11.444964l0 0c0 -2.2874613 1.854351 -4.1418147 4.141815 -4.1418147l121.35417 0c1.0984802 0 2.1519623 0.43636847 2.9286957 1.2131095c0.77674866 0.776741 1.2131195 1.8302279 1.2131195 2.9287052l0 16.566765c0 2.2874603 -1.8543549 4.1418133 -4.141815 4.1418133l-121.35417 0l0 0c-2.2874641 0 -4.141815 -1.854353 -4.141815 -4.1418133z" fill-rule="evenodd"/><path stroke="#ffff00" stroke-width="1.0" stroke-linejoin="round" stroke-linecap="butt" d="m43.78478 11.444964l0 0c0 -2.2874613 1.854351 -4.1418147 4.141815 -4.1418147l121.35417 0c1.0984802 0 2.1519623 0.43636847 2.9286957 1.2131095c0.77674866 0.776741 1.2131195 1.8302279 1.2131195 2.9287052l0 16.566765c0 2.2874603 -1.8543549 4.1418133 -4.141815 4.1418133l-121.35417 0l0 0c-2.2874641 0 -4.141815 -1.854353 -4.141815 -4.1418133z" fill-rule="evenodd"/><path fill="#ffff00" d="m68.3844 24.528345l4.265625 -9.328124l0.96875 0l4.265625 9.328124l-1.046875 0l-3.90625 -8.749999l0.390625 0l-3.921875 8.749999l-1.015625 0zm1.671875 -2.5l0.296875 -0.796875l5.421875 0l0.296875 0.796875l-6.015625 0zm10.714569 2.5l0 -8.484375l-3.28125 0l0 -0.84374905l7.546875 0l0 0.84374905l-3.28125 0l0 8.484375l-0.984375 0zm7.7836456 0l0 -8.484375l-3.28125 0l0 -0.84374905l7.546875 0l0 0.84374905l-3.28125 0l0 8.484375l-0.984375 0zm9.798233 0.078125q-1.0625 0 -1.96875 -0.34375q-0.890625 -0.359375 -1.5625 -1.0q-0.65625 -0.640625 -1.03125 -1.5q-0.359375 -0.875 -0.359375 -1.90625q0 -1.015625 0.359375 -1.875q0.375 -0.875 1.046875 -1.515625q0.671875 -0.64062405 1.5625 -0.98437405q0.90625 -0.359375 1.96875 -0.359375q1.0625 0 1.953125 0.328125q0.890625 0.328125 1.515625 1.015624l-0.609375 0.625q-0.59375 -0.59375 -1.296875 -0.84375q-0.703125 -0.24999905 -1.515625 -0.24999905q-0.875 0 -1.609375 0.29687405q-0.71875 0.28125 -1.265625 0.8125q-0.53125 0.515625 -0.828125 1.21875q-0.296875 0.703125 -0.296875 1.53125q0 0.828125 0.296875 1.546875q0.296875 0.703125 0.828125 1.234375q0.546875 0.515625 1.265625 0.8125q0.734375 0.28125 1.59375 0.28125q0.796875 0 1.5 -0.234375q0.71875 -0.25 1.328125 -0.828125l0.546875 0.75q-0.65625 0.59375 -1.5625 0.890625q-0.890625 0.296875 -1.859375 0.296875zm2.484375 -1.296875l0 -3.453125l0.9375 0l0 3.5625l-0.9375 -0.109375zm7.786972 1.296875q-1.0625 0 -1.953125 -0.34375q-0.890625 -0.359375 -1.546875 -1.0q-0.65625 -0.640625 -1.03125 -1.5q-0.359375 -0.875 -0.359375 -1.90625q0 -1.015625 0.359375 -1.875q0.375 -0.875 1.03125 -1.515625q0.671875 -0.64062405 1.5625 -0.98437405q0.890625 -0.359375 1.9375 -0.359375q1.0156174 0 1.9062424 0.34375q0.90625 0.328125 1.515625 1.015624l-0.625 0.625q-0.578125 -0.59375 -1.28125 -0.84375q-0.6875 -0.26562405 -1.4843674 -0.26562405q-0.84375 0 -1.5625 0.29687405q-0.71875 0.28125 -1.25 0.8125q-0.53125 0.515625 -0.828125 1.21875q-0.296875 0.703125 -0.296875 1.53125q0 0.84375 0.296875 1.546875q0.296875 0.703125 0.828125 1.234375q0.53125 0.515625 1.25 0.8125q0.71875 0.28125 1.5625 0.28125q0.7968674 0 1.4843674 -0.265625q0.703125 -0.265625 1.28125 -0.859375l0.625 0.625q-0.609375 0.6875 -1.515625 1.03125q-0.890625 0.34375 -1.9062424 0.34375zm3.7959976 -0.078125l4.265625 -9.328124l0.96875 0l4.265625 9.328124l-1.046875 0l-3.90625 -8.749999l0.390625 0l-3.921875 8.749999l-1.015625 0zm1.671875 -2.5l0.296875 -0.796875l5.421875 0l0.296875 0.796875l-6.015625 0zm10.714569 2.5l0 -8.484375l-3.28125 0l0 -0.84374905l7.5468826 0l0 0.84374905l-3.2812576 0l0 8.484375l-0.984375 0zm9.798241 0.078125q-1.0625 0 -1.96875 -0.34375q-0.890625 -0.359375 -1.5625 -1.0q-0.65625 -0.640625 -1.03125 -1.5q-0.359375 -0.875 -0.359375 -1.90625q0 -1.015625 0.359375 -1.875q0.375 -0.875 1.046875 -1.515625q0.671875 -0.64062405 1.5625 -0.98437405q0.90625 -0.359375 1.96875 -0.359375q1.0625 0 1.953125 0.328125q0.890625 0.328125 1.515625 1.015624l-0.609375 0.625q-0.59375 -0.59375 -1.296875 -0.84375q-0.703125 -0.24999905 -1.515625 -0.24999905q-0.875 0 -1.609375 0.29687405q-0.71875 0.28125 -1.265625 0.8125q-0.53125 0.515625 -0.828125 1.21875q-0.296875 0.703125 -0.296875 1.53125q0 0.828125 0.296875 1.546875q0.296875 0.703125 0.828125 1.234375q0.546875 0.515625 1.265625 0.8125q0.734375 0.28125 1.59375 0.28125q0.796875 0 1.5 -0.234375q0.71875 -0.25 1.328125 -0.828125l0.546875 0.75q-0.65625 0.59375 -1.5625 0.890625q-0.890625 0.296875 -1.859375 0.296875zm2.484375 -1.296875l0 -3.453125l0.9375 0l0 3.5625l-0.9375 -0.109375zm2.240097 1.21875l4.265625 -9.328124l0.96875 0l4.265625 9.328124l-1.046875 0l-3.90625 -8.749999l0.390625 0l-3.921875 8.749999l-1.015625 0zm1.671875 -2.5l0.296875 -0.796875l5.421875 0l0.296875 0.796875l-6.015625 0z" fill-rule="nonzero"/></g><g filter="url(#shadowFilter-p.2)"><use xlink:href="#p.2" transform=""/></g><defs><filter id="shadowFilter-p.2" filterUnits="userSpaceOnUse"><feGaussianBlur in="SourceAlpha" stdDeviation="2.5" result="blur"/><feComponentTransfer in="blur" color-interpolation-filters="sRGB"><feFuncR type="linear" slope="0" intercept="0.0"/><feFuncG type="linear" slope="0" intercept="0.0"/><feFuncB type="linear" slope="0" intercept="0.0"/><feFuncA type="linear" slope="0.6" intercept="0"/></feComponentTransfer></filter></defs><g id="p.2"><path fill="#000000" fill-opacity="0.0" d="m43.78478 44.534184l0 0c0 -1.7569084 1.4242554 -3.1811638 3.1811638 -3.1811638l42.110107 0c0.8436966 0 1.6528397 0.3351555 2.2494278 0.9317398c0.5965805 0.5965843 0.9317398 1.4057274 0.9317398 2.249424l0 12.724281c0 1.7569122 -1.4242554 3.1811676 -3.1811676 3.1811676l-42.110107 0l0 0c-1.7569084 0 -3.1811638 -1.4242554 -3.1811638 -3.1811676z" fill-rule="evenodd"/><path stroke="#ffff00" stroke-width="1.0" stroke-linejoin="round" stroke-linecap="butt" d="m43.78478 44.534184l0 0c0 -1.7569084 1.4242554 -3.1811638 3.1811638 -3.1811638l42.110107 0c0.8436966 0 1.6528397 0.3351555 2.2494278 0.9317398c0.5965805 0.5965843 0.9317398 1.4057274 0.9317398 2.249424l0 12.724281c0 1.7569122 -1.4242554 3.1811676 -3.1811676 3.1811676l-42.110107 0l0 0c-1.7569084 0 -3.1811638 -1.4242554 -3.1811638 -3.1811676z" fill-rule="evenodd"/><path fill="#ffff00" d="m59.45481 54.356323l2.984375 -6.53125l0.6875 0l2.984375 6.53125l-0.734375 0l-2.734375 -6.125l0.28125 0l-2.75 6.125l-0.71875 0zm1.171875 -1.75l0.21875 -0.546875l3.796875 0l0.203125 0.546875l-4.21875 0zm7.502228 1.75l0 -5.9375l-2.296875 0l0 -0.59375l5.28125 0l0 0.59375l-2.296875 0l0 5.9375l-0.6875 0zm5.4476776 0l0 -5.9375l-2.296875 0l0 -0.59375l5.28125 0l0 0.59375l-2.296875 0l0 5.9375l-0.6875 0z" fill-rule="nonzero"/></g><g filter="url(#shadowFilter-p.3)"><use xlink:href="#p.3" transform=""/></g><defs><filter id="shadowFilter-p.3" filterUnits="userSpaceOnUse"><feGaussianBlur in="SourceAlpha" stdDeviation="2.5" result="blur"/><feComponentTransfer in="blur" color-interpolation-filters="sRGB"><feFuncR type="linear" slope="0" intercept="0.0"/><feFuncG type="linear" slope="0" intercept="0.0"/><feFuncB type="linear" slope="0" intercept="0.0"/><feFuncA type="linear" slope="0.6" intercept="0"/></feComponentTransfer></filter></defs><g id="p.3"><path fill="#000000" fill-opacity="0.0" d="m43.78478 101.812225l0 0c0 -1.7569122 1.4242554 -3.1811676 3.1811638 -3.1811676l42.110107 0c0.8436966 0 1.6528397 0.3351593 2.2494278 0.93174744c0.5965805 0.5965805 0.9317398 1.4057236 0.9317398 2.2494202l0 12.724281c0 1.7569122 -1.4242554 3.1811676 -3.1811676 3.1811676l-42.110107 0l0 0c-1.7569084 0 -3.1811638 -1.4242554 -3.1811638 -3.1811676z" fill-rule="evenodd"/><path stroke="#ffff00" stroke-width="1.0" stroke-linejoin="round" stroke-linecap="butt" d="m43.78478 101.812225l0 0c0 -1.7569122 1.4242554 -3.1811676 3.1811638 -3.1811676l42.110107 0c0.8436966 0 1.6528397 0.3351593 2.2494278 0.93174744c0.5965805 0.5965805 0.9317398 1.4057236 0.9317398 2.2494202l0 12.724281c0 1.7569122 -1.4242554 3.1811676 -3.1811676 3.1811676l-42.110107 0l0 0c-1.7569084 0 -3.1811638 -1.4242554 -3.1811638 -3.1811676z" fill-rule="evenodd"/><path fill="#ffff00" d="m60.769165 111.63437l0 -5.9375l-2.296875 0l0 -0.59375l5.28125 0l0 0.59375l-2.296875 0l0 5.9375l-0.6875 0zm6.8547516 0.0625q-0.734375 0 -1.375 -0.25q-0.625 -0.25 -1.09375 -0.6875q-0.453125 -0.453125 -0.71875 -1.0625q-0.25 -0.609375 -0.25 -1.328125q0 -0.71875 0.25 -1.328125q0.265625 -0.609375 0.734375 -1.046875q0.46875 -0.453125 1.09375 -0.6875q0.625 -0.25 1.375 -0.25q0.75 0 1.359375 0.234375q0.625 0.21875 1.0625 0.703125l-0.421875 0.4375q-0.421875 -0.40625 -0.921875 -0.578125q-0.484375 -0.1875 -1.046875 -0.1875q-0.609375 0 -1.125 0.203125q-0.5 0.203125 -0.890625 0.578125q-0.375 0.359375 -0.578125 0.84375q-0.203125 0.484375 -0.203125 1.078125q0 0.578125 0.203125 1.078125q0.203125 0.484375 0.578125 0.859375q0.390625 0.375 0.890625 0.578125q0.515625 0.1875 1.109375 0.1875q0.5625 0 1.0625 -0.15625q0.5 -0.171875 0.921875 -0.578125l0.390625 0.515625q-0.46875 0.421875 -1.09375 0.640625q-0.625 0.203125 -1.3125 0.203125zm1.734375 -0.921875l0 -2.40625l0.671875 0l0 2.484375l-0.671875 -0.078125zm1.5700226 0.859375l2.984375 -6.53125l0.6875 0l2.984375 6.53125l-0.734375 0l-2.734375 -6.125l0.28125 0l-2.75 6.125l-0.71875 0zm1.171875 -1.75l0.21875 -0.546875l3.796875 0l0.203125 0.546875l-4.21875 0z" fill-rule="nonzero"/></g><g filter="url(#shadowFilter-p.4)"><use xlink:href="#p.4" transform=""/></g><defs><filter id="shadowFilter-p.4" filterUnits="userSpaceOnUse"><feGaussianBlur in="SourceAlpha" stdDeviation="2.5" result="blur"/><feComponentTransfer in="blur" color-interpolation-filters="sRGB"><feFuncR type="linear" slope="0" intercept="0.0"/><feFuncG type="linear" slope="0" intercept="0.0"/><feFuncB type="linear" slope="0" intercept="0.0"/><feFuncA type="linear" slope="0.6" intercept="0"/></feComponentTransfer></filter></defs><g id="p.4"><path fill="#000000" fill-opacity="0.0" d="m43.78478 82.71954l0 0c0 -1.7569046 1.4242554 -3.18116 3.1811638 -3.18116l42.110107 0c0.8436966 0 1.6528397 0.33515167 2.2494278 0.9317398c0.5965805 0.5965805 0.9317398 1.4057236 0.9317398 2.2494202l0 12.724281c0 1.7569122 -1.4242554 3.1811676 -3.1811676 3.1811676l-42.110107 0l0 0c-1.7569084 0 -3.1811638 -1.4242554 -3.1811638 -3.1811676z" fill-rule="evenodd"/><path stroke="#ffff00" stroke-width="1.0" stroke-linejoin="round" stroke-linecap="butt" d="m43.78478 82.71954l0 0c0 -1.7569046 1.4242554 -3.18116 3.1811638 -3.18116l42.110107 0c0.8436966 0 1.6528397 0.33515167 2.2494278 0.9317398c0.5965805 0.5965805 0.9317398 1.4057236 0.9317398 2.2494202l0 12.724281c0 1.7569122 -1.4242554 3.1811676 -3.1811676 3.1811676l-42.110107 0l0 0c-1.7569084 0 -3.1811638 -1.4242554 -3.1811638 -3.1811676z" fill-rule="evenodd"/><path fill="#ffff00" d="m62.799812 92.60419q-0.75 0 -1.375 -0.25q-0.625 -0.25 -1.078125 -0.6875q-0.453125 -0.453125 -0.71875 -1.0625q-0.25 -0.609375 -0.25 -1.328125q0 -0.71875 0.25 -1.328125q0.265625 -0.609375 0.71875 -1.046875q0.46875 -0.453125 1.09375 -0.6875q0.625 -0.25 1.359375 -0.25q0.71875 0 1.34375 0.234375q0.625 0.234375 1.046875 0.703125l-0.4375 0.4375q-0.40625 -0.40625 -0.890625 -0.578125q-0.484375 -0.1875 -1.046875 -0.1875q-0.578125 0 -1.09375 0.203125q-0.5 0.203125 -0.875 0.578125q-0.375 0.359375 -0.578125 0.84375q-0.203125 0.484375 -0.203125 1.078125q0 0.59375 0.203125 1.078125q0.203125 0.484375 0.578125 0.859375q0.375 0.375 0.875 0.578125q0.515625 0.1875 1.09375 0.1875q0.5625 0 1.046875 -0.1875q0.484375 -0.1875 0.890625 -0.59375l0.4375 0.4375q-0.421875 0.484375 -1.046875 0.734375q-0.625 0.234375 -1.34375 0.234375zm2.6483002 -0.0625l2.984375 -6.53125l0.6875 0l2.984375 6.53125l-0.734375 0l-2.734375 -6.125l0.28125 0l-2.75 6.125l-0.71875 0zm1.171875 -1.75l0.21875 -0.546875l3.796875 0l0.203125 0.546875l-4.21875 0zm7.502228 1.75l0 -5.9375l-2.296875 0l0 -0.59375l5.28125 0l0 0.59375l-2.296875 0l0 5.9375l-0.6875 0z" fill-rule="nonzero"/></g><g filter="url(#shadowFilter-p.5)"><use xlink:href="#p.5" transform=""/></g><defs><filter id="shadowFilter-p.5" filterUnits="userSpaceOnUse"><feGaussianBlur in="SourceAlpha" stdDeviation="2.5" result="blur"/><feComponentTransfer in="blur" color-interpolation-filters="sRGB"><feFuncR type="linear" slope="0" intercept="0.0"/><feFuncG type="linear" slope="0" intercept="0.0"/><feFuncB type="linear" slope="0" intercept="0.0"/><feFuncA type="linear" slope="0.6" intercept="0"/></feComponentTransfer></filter></defs><g id="p.5"><path fill="#000000" fill-opacity="0.0" d="m43.78478 63.626865l0 0c0 -1.7569084 1.4242554 -3.1811676 3.1811638 -3.1811676l42.110107 0c0.8436966 0 1.6528397 0.3351593 2.2494278 0.9317436c0.5965805 0.5965843 0.9317398 1.4057274 0.9317398 2.249424l0 12.724285c0 1.7569046 -1.4242554 3.18116 -3.1811676 3.18116l-42.110107 0l0 0c-1.7569084 0 -3.1811638 -1.4242554 -3.1811638 -3.18116z" fill-rule="evenodd"/><path stroke="#ffff00" stroke-width="1.0" stroke-linejoin="round" stroke-linecap="butt" d="m43.78478 63.626865l0 0c0 -1.7569084 1.4242554 -3.1811676 3.1811638 -3.1811676l42.110107 0c0.8436966 0 1.6528397 0.3351593 2.2494278 0.9317436c0.5965805 0.5965843 0.9317398 1.4057274 0.9317398 2.249424l0 12.724285c0 1.7569046 -1.4242554 3.18116 -3.1811676 3.18116l-42.110107 0l0 0c-1.7569084 0 -3.1811638 -1.4242554 -3.1811638 -3.18116z" fill-rule="evenodd"/><path fill="#ffff00" d="m60.759834 73.449005l0 -5.9375l-2.296875 0l0 -0.59375l5.28125 0l0 0.59375l-2.296875 0l0 5.9375l-0.6875 0zm6.8547516 0.0625q-0.734375 0 -1.375 -0.25q-0.625 -0.25 -1.09375 -0.6875q-0.453125 -0.453125 -0.71875 -1.0625q-0.25 -0.609375 -0.25 -1.328125q0 -0.71875 0.25 -1.328125q0.265625 -0.609375 0.734375 -1.046875q0.46875 -0.453125 1.09375 -0.6875q0.625 -0.25 1.375 -0.25q0.75 0 1.359375 0.234375q0.625 0.21875 1.0625 0.703125l-0.421875 0.4375q-0.421875 -0.40625 -0.921875 -0.578125q-0.484375 -0.1875 -1.046875 -0.1875q-0.609375 0 -1.125 0.203125q-0.5 0.203125 -0.890625 0.578125q-0.375 0.359375 -0.578125 0.84375q-0.203125 0.484375 -0.203125 1.078125q0 0.578125 0.203125 1.078125q0.203125 0.484375 0.578125 0.859375q0.390625 0.375 0.890625 0.578125q0.515625 0.1875 1.109375 0.1875q0.5625 0 1.0625 -0.15625q0.5 -0.171875 0.921875 -0.578125l0.390625 0.515625q-0.46875 0.421875 -1.09375 0.640625q-0.625 0.203125 -1.3125 0.203125zm1.734375 -0.921875l0 -2.40625l0.671875 0l0 2.484375l-0.671875 -0.078125zm5.4606476 0.921875q-0.75 0 -1.375 -0.25q-0.625 -0.25 -1.078125 -0.6875q-0.453125 -0.453125 -0.71875 -1.0625q-0.25 -0.609375 -0.25 -1.328125q0 -0.71875 0.25 -1.328125q0.265625 -0.609375 0.71875 -1.046875q0.46875 -0.453125 1.09375 -0.6875q0.625 -0.25 1.359375 -0.25q0.71875 0 1.34375 0.234375q0.625 0.234375 1.046875 0.703125l-0.4375 0.4375q-0.40625 -0.40625 -0.890625 -0.578125q-0.484375 -0.1875 -1.046875 -0.1875q-0.578125 0 -1.09375 0.203125q-0.5 0.203125 -0.875 0.578125q-0.375 0.359375 -0.578125 0.84375q-0.203125 0.484375 -0.203125 1.078125q0 0.59375 0.203125 1.078125q0.203125 0.484375 0.578125 0.859375q0.375 0.375 0.875 0.578125q0.515625 0.1875 1.09375 0.1875q0.5625 0 1.046875 -0.1875q0.484375 -0.1875 0.890625 -0.59375l0.4375 0.4375q-0.421875 0.484375 -1.046875 0.734375q-0.625 0.234375 -1.34375 0.234375z" fill-rule="nonzero"/></g><g filter="url(#shadowFilter-p.6)"><use xlink:href="#p.6" transform=""/></g><defs><filter id="shadowFilter-p.6" filterUnits="userSpaceOnUse"><feGaussianBlur in="SourceAlpha" stdDeviation="2.5" result="blur"/><feComponentTransfer in="blur" color-interpolation-filters="sRGB"><feFuncR type="linear" slope="0" intercept="0.0"/><feFuncG type="linear" slope="0" intercept="0.0"/><feFuncB type="linear" slope="0" intercept="0.0"/><feFuncA type="linear" slope="0.6" intercept="0"/></feComponentTransfer></filter></defs><g id="p.6"><path fill="#000000" fill-opacity="0.0" d="m242.86089 11.444964l0 0c0 -2.2874613 1.8543549 -4.1418147 4.141815 -4.1418147l121.35417 0c1.0984802 0 2.1519775 0.43636847 2.928711 1.2131095c0.7767334 0.776741 1.2131042 1.8302279 1.2131042 2.9287052l0 16.566765c0 2.2874603 -1.8543396 4.1418133 -4.141815 4.1418133l-121.35417 0l0 0c-2.2874603 0 -4.141815 -1.854353 -4.141815 -4.1418133z" fill-rule="evenodd"/><path stroke="#00ff00" stroke-width="1.0" stroke-linejoin="round" stroke-linecap="butt" d="m242.86089 11.444964l0 0c0 -2.2874613 1.8543549 -4.1418147 4.141815 -4.1418147l121.35417 0c1.0984802 0 2.1519775 0.43636847 2.928711 1.2131095c0.7767334 0.776741 1.2131042 1.8302279 1.2131042 2.9287052l0 16.566765c0 2.2874603 -1.8543396 4.1418133 -4.141815 4.1418133l-121.35417 0l0 0c-2.2874603 0 -4.141815 -1.854353 -4.141815 -4.1418133z" fill-rule="evenodd"/><path fill="#00ff00" d="m272.37213 24.60647q-1.0625 0 -1.96875 -0.34375q-0.890625 -0.359375 -1.5625 -1.0q-0.65625 -0.640625 -1.03125 -1.5q-0.359375 -0.875 -0.359375 -1.90625q0 -1.015625 0.359375 -1.875q0.375 -0.875 1.046875 -1.515625q0.671875 -0.64062405 1.5625 -0.98437405q0.90625 -0.359375 1.96875 -0.359375q1.0625 0 1.953125 0.328125q0.890625 0.328125 1.515625 1.015624l-0.609375 0.625q-0.59375 -0.59375 -1.296875 -0.84375q-0.703125 -0.24999905 -1.515625 -0.24999905q-0.875 0 -1.609375 0.29687405q-0.71875 0.28125 -1.265625 0.8125q-0.53125 0.515625 -0.828125 1.21875q-0.296875 0.703125 -0.296875 1.53125q0 0.828125 0.296875 1.546875q0.296875 0.703125 0.828125 1.234375q0.546875 0.515625 1.265625 0.8125q0.734375 0.28125 1.59375 0.28125q0.796875 0 1.5 -0.234375q0.71875 -0.25 1.328125 -0.828125l0.546875 0.75q-0.65625 0.59375 -1.5625 0.890625q-0.890625 0.296875 -1.859375 0.296875zm2.484375 -1.296875l0 -3.453125l0.9375 0l0 3.5625l-0.9375 -0.109375zm2.2400818 1.21875l4.265625 -9.328124l0.96875 0l4.265625 9.328124l-1.046875 0l-3.90625 -8.749999l0.390625 0l-3.921875 8.749999l-1.015625 0zm1.671875 -2.5l0.296875 -0.796875l5.421875 0l0.296875 0.796875l-6.015625 0zm10.714569 2.5l0 -8.484375l-3.28125 0l0 -0.84374905l7.546875 0l0 0.84374905l-3.28125 0l0 8.484375l-0.984375 0zm9.798248 0.078125q-1.0625 0 -1.96875 -0.34375q-0.890625 -0.359375 -1.5625 -1.0q-0.65625 -0.640625 -1.03125 -1.5q-0.359375 -0.875 -0.359375 -1.90625q0 -1.015625 0.359375 -1.875q0.375 -0.875 1.046875 -1.515625q0.671875 -0.64062405 1.5625 -0.98437405q0.90625 -0.359375 1.96875 -0.359375q1.0625 0 1.953125 0.328125q0.890625 0.328125 1.515625 1.015624l-0.609375 0.625q-0.59375 -0.59375 -1.296875 -0.84375q-0.703125 -0.24999905 -1.515625 -0.24999905q-0.875 0 -1.609375 0.29687405q-0.71875 0.28125 -1.265625 0.8125q-0.53125 0.515625 -0.828125 1.21875q-0.296875 0.703125 -0.296875 1.53125q0 0.828125 0.296875 1.546875q0.296875 0.703125 0.828125 1.234375q0.546875 0.515625 1.265625 0.8125q0.734375 0.28125 1.59375 0.28125q0.796875 0 1.5 -0.234375q0.71875 -0.25 1.328125 -0.828125l0.546875 0.75q-0.65625 0.59375 -1.5625 0.890625q-0.890625 0.296875 -1.859375 0.296875zm2.484375 -1.296875l0 -3.453125l0.9375 0l0 3.5625l-0.9375 -0.109375zm7.786957 1.296875q-1.0625 0 -1.953125 -0.34375q-0.890625 -0.359375 -1.546875 -1.0q-0.65625 -0.640625 -1.03125 -1.5q-0.359375 -0.875 -0.359375 -1.90625q0 -1.015625 0.359375 -1.875q0.375 -0.875 1.03125 -1.515625q0.671875 -0.64062405 1.5625 -0.98437405q0.890625 -0.359375 1.9375 -0.359375q1.015625 0 1.90625 0.34375q0.90625 0.328125 1.515625 1.015624l-0.625 0.625q-0.578125 -0.59375 -1.28125 -0.84375q-0.6875 -0.26562405 -1.484375 -0.26562405q-0.84375 0 -1.5625 0.29687405q-0.71875 0.28125 -1.25 0.8125q-0.53125 0.515625 -0.828125 1.21875q-0.296875 0.703125 -0.296875 1.53125q0 0.84375 0.296875 1.546875q0.296875 0.703125 0.828125 1.234375q0.53125 0.515625 1.25 0.8125q0.71875 0.28125 1.5625 0.28125q0.796875 0 1.484375 -0.265625q0.703125 -0.265625 1.28125 -0.859375l0.625 0.625q-0.609375 0.6875 -1.515625 1.03125q-0.890625 0.34375 -1.90625 0.34375zm7.2128906 -0.078125l0 -8.484375l-3.28125 0l0 -0.84374905l7.546875 0l0 0.84374905l-3.28125 0l0 8.484375l-0.984375 0zm7.7836304 0l0 -8.484375l-3.28125 0l0 -0.84374905l7.546875 0l0 0.84374905l-3.28125 0l0 8.484375l-0.984375 0zm9.798248 0.078125q-1.0625 0 -1.96875 -0.34375q-0.890625 -0.359375 -1.5625 -1.0q-0.65625 -0.640625 -1.03125 -1.5q-0.359375 -0.875 -0.359375 -1.90625q0 -1.015625 0.359375 -1.875q0.375 -0.875 1.046875 -1.515625q0.671875 -0.64062405 1.5625 -0.98437405q0.90625 -0.359375 1.96875 -0.359375q1.0625 0 1.953125 0.328125q0.890625 0.328125 1.515625 1.015624l-0.609375 0.625q-0.59375 -0.59375 -1.296875 -0.84375q-0.703125 -0.24999905 -1.515625 -0.24999905q-0.875 0 -1.609375 0.29687405q-0.71875 0.28125 -1.265625 0.8125q-0.53125 0.515625 -0.828125 1.21875q-0.296875 0.703125 -0.296875 1.53125q0 0.828125 0.296875 1.546875q0.296875 0.703125 0.828125 1.234375q0.546875 0.515625 1.265625 0.8125q0.734375 0.28125 1.59375 0.28125q0.796875 0 1.5 -0.234375q0.71875 -0.25 1.328125 -0.828125l0.546875 0.75q-0.65625 0.59375 -1.5625 0.890625q-0.890625 0.296875 -1.859375 0.296875zm2.484375 -1.296875l0 -3.453125l0.9375 0l0 3.5625l-0.9375 -0.109375zm2.2400818 1.21875l4.265625 -9.328124l0.96875 0l4.265625 9.328124l-1.046875 0l-3.90625 -8.749999l0.390625 0l-3.921875 8.749999l-1.015625 0zm1.671875 -2.5l0.296875 -0.796875l5.421875 0l0.296875 0.796875l-6.015625 0z" fill-rule="nonzero"/></g><g filter="url(#shadowFilter-p.7)"><use xlink:href="#p.7" transform=""/></g><defs><filter id="shadowFilter-p.7" filterUnits="userSpaceOnUse"><feGaussianBlur in="SourceAlpha" stdDeviation="2.5" result="blur"/><feComponentTransfer in="blur" color-interpolation-filters="sRGB"><feFuncR type="linear" slope="0" intercept="0.0"/><feFuncG type="linear" slope="0" intercept="0.0"/><feFuncB type="linear" slope="0" intercept="0.0"/><feFuncA type="linear" slope="0.6" intercept="0"/></feComponentTransfer></filter></defs><g id="p.7"><path fill="#000000" fill-opacity="0.0" d="m325.47192 44.534184l0 0c0 -1.7569084 1.4242554 -3.1811638 3.1811829 -3.1811638l40.661285 0c0.84368896 0 1.652832 0.3351555 2.2494202 0.9317398c0.59658813 0.5965843 0.9317322 1.4057274 0.9317322 2.249424l0 12.724281c0 1.7569122 -1.4242554 3.1811676 -3.1811523 3.1811676l-40.661285 0l0 0c-1.7569275 0 -3.1811829 -1.4242554 -3.1811829 -3.1811676z" fill-rule="evenodd"/><path stroke="#00ff00" stroke-width="1.0" stroke-linejoin="round" stroke-linecap="butt" d="m325.47192 44.534184l0 0c0 -1.7569084 1.4242554 -3.1811638 3.1811829 -3.1811638l40.661285 0c0.84368896 0 1.652832 0.3351555 2.2494202 0.9317398c0.59658813 0.5965843 0.9317322 1.4057274 0.9317322 2.249424l0 12.724281c0 1.7569122 -1.4242554 3.1811676 -3.1811523 3.1811676l-40.661285 0l0 0c-1.7569275 0 -3.1811829 -1.4242554 -3.1811829 -3.1811676z" fill-rule="evenodd"/><path fill="#00ff00" d="m343.44232 54.418823q-0.734375 0 -1.375 -0.25q-0.625 -0.25 -1.09375 -0.6875q-0.453125 -0.453125 -0.71875 -1.0625q-0.25 -0.609375 -0.25 -1.328125q0 -0.71875 0.25 -1.328125q0.265625 -0.609375 0.734375 -1.046875q0.46875 -0.453125 1.09375 -0.6875q0.625 -0.25 1.375 -0.25q0.75 0 1.359375 0.234375q0.625 0.21875 1.0625 0.703125l-0.421875 0.4375q-0.421875 -0.40625 -0.921875 -0.578125q-0.484375 -0.1875 -1.046875 -0.1875q-0.609375 0 -1.125 0.203125q-0.5 0.203125 -0.890625 0.578125q-0.375 0.359375 -0.578125 0.84375q-0.203125 0.484375 -0.203125 1.078125q0 0.578125 0.203125 1.078125q0.203125 0.484375 0.578125 0.859375q0.390625 0.375 0.890625 0.578125q0.515625 0.1875 1.109375 0.1875q0.5625 0 1.0625 -0.15625q0.5 -0.171875 0.921875 -0.578125l0.390625 0.515625q-0.46875 0.421875 -1.09375 0.640625q-0.625 0.203125 -1.3125 0.203125zm1.734375 -0.921875l0 -2.40625l0.671875 0l0 2.484375l-0.671875 -0.078125zm1.5700378 0.859375l2.984375 -6.53125l0.6875 0l2.984375 6.53125l-0.734375 0l-2.734375 -6.125l0.28125 0l-2.75 6.125l-0.71875 0zm1.171875 -1.75l0.21875 -0.546875l3.796875 0l0.203125 0.546875l-4.21875 0zm7.502228 1.75l0 -5.9375l-2.296875 0l0 -0.59375l5.28125 0l0 0.59375l-2.296875 0l0 5.9375l-0.6875 0z" fill-rule="nonzero"/></g><g filter="url(#shadowFilter-p.8)"><use xlink:href="#p.8" transform=""/></g><defs><filter id="shadowFilter-p.8" filterUnits="userSpaceOnUse"><feGaussianBlur in="SourceAlpha" stdDeviation="2.5" result="blur"/><feComponentTransfer in="blur" color-interpolation-filters="sRGB"><feFuncR type="linear" slope="0" intercept="0.0"/><feFuncG type="linear" slope="0" intercept="0.0"/><feFuncB type="linear" slope="0" intercept="0.0"/><feFuncA type="linear" slope="0.6" intercept="0"/></feComponentTransfer></filter></defs><g id="p.8"><path fill="#000000" fill-opacity="0.0" d="m325.47192 63.626865l0 0c0 -1.7569084 1.4242554 -3.1811638 3.1811829 -3.1811638l40.661285 0c0.84368896 0 1.652832 0.3351555 2.2494202 0.9317398c0.59658813 0.5965843 0.9317322 1.4057274 0.9317322 2.249424l0 12.724285c0 1.7569046 -1.4242554 3.18116 -3.1811523 3.18116l-40.661285 0l0 0c-1.7569275 0 -3.1811829 -1.4242554 -3.1811829 -3.18116z" fill-rule="evenodd"/><path stroke="#00ff00" stroke-width="1.0" stroke-linejoin="round" stroke-linecap="butt" d="m325.47192 63.626865l0 0c0 -1.7569084 1.4242554 -3.1811638 3.1811829 -3.1811638l40.661285 0c0.84368896 0 1.652832 0.3351555 2.2494202 0.9317398c0.59658813 0.5965843 0.9317322 1.4057274 0.9317322 2.249424l0 12.724285c0 1.7569046 -1.4242554 3.18116 -3.1811523 3.18116l-40.661285 0l0 0c-1.7569275 0 -3.1811829 -1.4242554 -3.1811829 -3.18116z" fill-rule="evenodd"/><path fill="#00ff00" d="m341.7226 73.449005l0 -5.9375l-2.296875 0l0 -0.59375l5.28125 0l0 0.59375l-2.296875 0l0 5.9375l-0.6875 0zm6.8547363 0.0625q-0.734375 0 -1.375 -0.25q-0.625 -0.25 -1.09375 -0.6875q-0.453125 -0.453125 -0.71875 -1.0625q-0.25 -0.609375 -0.25 -1.328125q0 -0.71875 0.25 -1.328125q0.265625 -0.609375 0.734375 -1.046875q0.46875 -0.453125 1.09375 -0.6875q0.625 -0.25 1.375 -0.25q0.75 0 1.359375 0.234375q0.625 0.21875 1.0625 0.703125l-0.421875 0.4375q-0.421875 -0.40625 -0.921875 -0.578125q-0.484375 -0.1875 -1.046875 -0.1875q-0.609375 0 -1.125 0.203125q-0.5 0.203125 -0.890625 0.578125q-0.375 0.359375 -0.578125 0.84375q-0.203125 0.484375 -0.203125 1.078125q0 0.578125 0.203125 1.078125q0.203125 0.484375 0.578125 0.859375q0.390625 0.375 0.890625 0.578125q0.515625 0.1875 1.109375 0.1875q0.5625 0 1.0625 -0.15625q0.5 -0.171875 0.921875 -0.578125l0.390625 0.515625q-0.46875 0.421875 -1.09375 0.640625q-0.625 0.203125 -1.3125 0.203125zm1.734375 -0.921875l0 -2.40625l0.671875 0l0 2.484375l-0.671875 -0.078125zm5.460663 0.921875q-0.75 0 -1.375 -0.25q-0.625 -0.25 -1.078125 -0.6875q-0.453125 -0.453125 -0.71875 -1.0625q-0.25 -0.609375 -0.25 -1.328125q0 -0.71875 0.25 -1.328125q0.265625 -0.609375 0.71875 -1.046875q0.46875 -0.453125 1.09375 -0.6875q0.625 -0.25 1.359375 -0.25q0.71875 0 1.34375 0.234375q0.625 0.234375 1.046875 0.703125l-0.4375 0.4375q-0.40625 -0.40625 -0.890625 -0.578125q-0.484375 -0.1875 -1.046875 -0.1875q-0.578125 0 -1.09375 0.203125q-0.5 0.203125 -0.875 0.578125q-0.375 0.359375 -0.578125 0.84375q-0.203125 0.484375 -0.203125 1.078125q0 0.59375 0.203125 1.078125q0.203125 0.484375 0.578125 0.859375q0.375 0.375 0.875 0.578125q0.515625 0.1875 1.09375 0.1875q0.5625 0 1.046875 -0.1875q0.484375 -0.1875 0.890625 -0.59375l0.4375 0.4375q-0.421875 0.484375 -1.046875 0.734375q-0.625 0.234375 -1.34375 0.234375z" fill-rule="nonzero"/></g><g filter="url(#shadowFilter-p.9)"><use xlink:href="#p.9" transform=""/></g><defs><filter id="shadowFilter-p.9" filterUnits="userSpaceOnUse"><feGaussianBlur in="SourceAlpha" stdDeviation="2.5" result="blur"/><feComponentTransfer in="blur" color-interpolation-filters="sRGB"><feFuncR type="linear" slope="0" intercept="0.0"/><feFuncG type="linear" slope="0" intercept="0.0"/><feFuncB type="linear" slope="0" intercept="0.0"/><feFuncA type="linear" slope="0.6" intercept="0"/></feComponentTransfer></filter></defs><g id="p.9"><path fill="#000000" fill-opacity="0.0" d="m325.47192 82.71955l0 0c0 -1.7569122 1.4242554 -3.1811676 3.1811829 -3.1811676l40.661285 0c0.84368896 0 1.652832 0.33515167 2.2494202 0.9317398c0.59658813 0.59658813 0.9317322 1.4057236 0.9317322 2.2494278l0 12.724281c0 1.7569046 -1.4242554 3.18116 -3.1811523 3.18116l-40.661285 0l0 0c-1.7569275 0 -3.1811829 -1.4242554 -3.1811829 -3.18116z" fill-rule="evenodd"/><path stroke="#00ff00" stroke-width="1.0" stroke-linejoin="round" stroke-linecap="butt" d="m325.47192 82.71955l0 0c0 -1.7569122 1.4242554 -3.1811676 3.1811829 -3.1811676l40.661285 0c0.84368896 0 1.652832 0.33515167 2.2494202 0.9317398c0.59658813 0.59658813 0.9317322 1.4057236 0.9317322 2.2494278l0 12.724281c0 1.7569046 -1.4242554 3.18116 -3.1811523 3.18116l-40.661285 0l0 0c-1.7569275 0 -3.1811829 -1.4242554 -3.1811829 -3.18116z" fill-rule="evenodd"/><path fill="#00ff00" d="m344.17752 92.60419q-0.75 0 -1.375 -0.25q-0.625 -0.25 -1.078125 -0.6875q-0.453125 -0.453125 -0.71875 -1.0625q-0.25 -0.609375 -0.25 -1.328125q0 -0.71875 0.25 -1.328125q0.265625 -0.609375 0.71875 -1.046875q0.46875 -0.453125 1.09375 -0.6875q0.625 -0.25 1.359375 -0.25q0.71875 0 1.34375 0.234375q0.625 0.234375 1.046875 0.703125l-0.4375 0.4375q-0.40625 -0.40625 -0.890625 -0.578125q-0.484375 -0.1875 -1.046875 -0.1875q-0.578125 0 -1.09375 0.203125q-0.5 0.203125 -0.875 0.578125q-0.375 0.359375 -0.578125 0.84375q-0.203125 0.484375 -0.203125 1.078125q0 0.59375 0.203125 1.078125q0.203125 0.484375 0.578125 0.859375q0.375 0.375 0.875 0.578125q0.515625 0.1875 1.09375 0.1875q0.5625 0 1.046875 -0.1875q0.484375 -0.1875 0.890625 -0.59375l0.4375 0.4375q-0.421875 0.484375 -1.046875 0.734375q-0.625 0.234375 -1.34375 0.234375zm5.0448 -0.0625l0 -5.9375l-2.296875 0l0 -0.59375l5.28125 0l0 0.59375l-2.296875 0l0 5.9375l-0.6875 0zm5.447693 0l0 -5.9375l-2.296875 0l0 -0.59375l5.28125 0l0 0.59375l-2.296875 0l0 5.9375l-0.6875 0z" fill-rule="nonzero"/></g><g filter="url(#shadowFilter-p.10)"><use xlink:href="#p.10" transform=""/></g><defs><filter id="shadowFilter-p.10" filterUnits="userSpaceOnUse"><feGaussianBlur in="SourceAlpha" stdDeviation="2.5" result="blur"/><feComponentTransfer in="blur" color-interpolation-filters="sRGB"><feFuncR type="linear" slope="0" intercept="0.0"/><feFuncG type="linear" slope="0" intercept="0.0"/><feFuncB type="linear" slope="0" intercept="0.0"/><feFuncA type="linear" slope="0.6" intercept="0"/></feComponentTransfer></filter></defs><g id="p.10"><path fill="#000000" fill-opacity="0.0" d="m325.47192 101.812225l0 0c0 -1.7569046 1.4242554 -3.18116 3.1811829 -3.18116l40.661285 0c0.84368896 0 1.652832 0.33515167 2.2494202 0.9317398c0.59658813 0.5965805 0.9317322 1.4057236 0.9317322 2.2494202l0 12.724281c0 1.7569122 -1.4242554 3.1811676 -3.1811523 3.1811676l-40.661285 0l0 0c-1.7569275 0 -3.1811829 -1.4242554 -3.1811829 -3.1811676z" fill-rule="evenodd"/><path stroke="#00ff00" stroke-width="1.0" stroke-linejoin="round" stroke-linecap="butt" d="m325.47192 101.812225l0 0c0 -1.7569046 1.4242554 -3.18116 3.1811829 -3.18116l40.661285 0c0.84368896 0 1.652832 0.33515167 2.2494202 0.9317398c0.59658813 0.5965805 0.9317322 1.4057236 0.9317322 2.2494202l0 12.724281c0 1.7569122 -1.4242554 3.1811676 -3.1811523 3.1811676l-40.661285 0l0 0c-1.7569275 0 -3.1811829 -1.4242554 -3.1811829 -3.1811676z" fill-rule="evenodd"/><path fill="#00ff00" d="m341.7319 111.63437l0 -5.9375l-2.296875 0l0 -0.59375l5.28125 0l0 0.59375l-2.296875 0l0 5.9375l-0.6875 0zm6.854767 0.0625q-0.734375 0 -1.375 -0.25q-0.625 -0.25 -1.09375 -0.6875q-0.453125 -0.453125 -0.71875 -1.0625q-0.25 -0.609375 -0.25 -1.328125q0 -0.71875 0.25 -1.328125q0.265625 -0.609375 0.734375 -1.046875q0.46875 -0.453125 1.09375 -0.6875q0.625 -0.25 1.375 -0.25q0.75 0 1.359375 0.234375q0.625 0.21875 1.0625 0.703125l-0.421875 0.4375q-0.421875 -0.40625 -0.921875 -0.578125q-0.484375 -0.1875 -1.046875 -0.1875q-0.609375 0 -1.125 0.203125q-0.5 0.203125 -0.890625 0.578125q-0.375 0.359375 -0.578125 0.84375q-0.203125 0.484375 -0.203125 1.078125q0 0.578125 0.203125 1.078125q0.203125 0.484375 0.578125 0.859375q0.390625 0.375 0.890625 0.578125q0.515625 0.1875 1.109375 0.1875q0.5625 0 1.0625 -0.15625q0.5 -0.171875 0.921875 -0.578125l0.390625 0.515625q-0.46875 0.421875 -1.09375 0.640625q-0.625 0.203125 -1.3125 0.203125zm1.734375 -0.921875l0 -2.40625l0.671875 0l0 2.484375l-0.671875 -0.078125zm1.5700073 0.859375l2.984375 -6.53125l0.6875 0l2.984375 6.53125l-0.734375 0l-2.734375 -6.125l0.28125 0l-2.75 6.125l-0.71875 0zm1.171875 -1.75l0.21875 -0.546875l3.796875 0l0.203125 0.546875l-4.21875 0z" fill-rule="nonzero"/></g><g filter="url(#shadowFilter-p.11)"><use xlink:href="#p.11" transform=""/></g><defs><filter id="shadowFilter-p.11" filterUnits="userSpaceOnUse"><feGaussianBlur in="SourceAlpha" stdDeviation="2.5" result="blur"/><feComponentTransfer in="blur" color-interpolation-filters="sRGB"><feFuncR type="linear" slope="0" intercept="0.0"/><feFuncG type="linear" slope="0" intercept="0.0"/><feFuncB type="linear" slope="0" intercept="0.0"/><feFuncA type="linear" slope="0.6" intercept="0"/></feComponentTransfer></filter></defs><g id="p.11"><path fill="#000000" fill-opacity="0.0" d="m109.39315 44.534184l0 0c0 -1.7569084 1.424263 -3.1811638 3.1811676 -3.1811638l57.669167 0c0.84368896 0 1.652832 0.3351555 2.2494202 0.9317398c0.59658813 0.5965843 0.93174744 1.4057274 0.93174744 2.249424l0 12.724281c0 1.7569122 -1.4242554 3.1811676 -3.1811676 3.1811676l-57.669167 0c-1.7569046 0 -3.1811676 -1.4242554 -3.1811676 -3.1811676z" fill-rule="evenodd"/><path stroke="#ffff00" stroke-width="1.0" stroke-linejoin="round" stroke-linecap="butt" d="m109.39315 44.534184l0 0c0 -1.7569084 1.424263 -3.1811638 3.1811676 -3.1811638l57.669167 0c0.84368896 0 1.652832 0.3351555 2.2494202 0.9317398c0.59658813 0.5965843 0.93174744 1.4057274 0.93174744 2.249424l0 12.724281c0 1.7569122 -1.4242554 3.1811676 -3.1811676 3.1811676l-57.669167 0c-1.7569046 0 -3.1811676 -1.4242554 -3.1811676 -3.1811676z" fill-rule="evenodd"/><path fill="#ffff00" d="m131.59254 54.418823q-0.765625 0 -1.359375 -0.390625q-0.578125 -0.40625 -0.921875 -1.140625q-0.328125 -0.75 -0.328125 -1.796875q0 -1.046875 0.328125 -1.78125q0.34375 -0.75 0.921875 -1.140625q0.59375 -0.390625 1.359375 -0.390625q0.75 0 1.328125 0.390625q0.59375 0.390625 0.9375 1.140625q0.34375 0.734375 0.34375 1.78125q0 1.046875 -0.34375 1.796875q-0.34375 0.734375 -0.9375 1.140625q-0.578125 0.390625 -1.328125 0.390625zm0 -0.625q0.578125 0 1.0 -0.3125q0.4375 -0.3125 0.671875 -0.90625q0.25 -0.609375 0.25 -1.484375q0 -0.875 -0.25 -1.46875q-0.234375 -0.609375 -0.671875 -0.921875q-0.421875 -0.3125 -1.0 -0.3125q-0.5625 0 -1.0 0.3125q-0.4375 0.3125 -0.6875 0.921875q-0.234375 0.59375 -0.234375 1.46875q0 0.875 0.234375 1.484375q0.25 0.59375 0.6875 0.90625q0.4375 0.3125 1.0 0.3125zm6.1752167 0.625q-0.765625 0 -1.359375 -0.390625q-0.578125 -0.40625 -0.921875 -1.140625q-0.328125 -0.75 -0.328125 -1.796875q0 -1.046875 0.328125 -1.78125q0.34375 -0.75 0.921875 -1.140625q0.59375 -0.390625 1.359375 -0.390625q0.75 0 1.328125 0.390625q0.59375 0.390625 0.9375 1.140625q0.34375 0.734375 0.34375 1.78125q0 1.046875 -0.34375 1.796875q-0.34375 0.734375 -0.9375 1.140625q-0.578125 0.390625 -1.328125 0.390625zm0 -0.625q0.578125 0 1.0 -0.3125q0.4375 -0.3125 0.671875 -0.90625q0.25 -0.609375 0.25 -1.484375q0 -0.875 -0.25 -1.46875q-0.234375 -0.609375 -0.671875 -0.921875q-0.421875 -0.3125 -1.0 -0.3125q-0.5625 0 -1.0 0.3125q-0.4375 0.3125 -0.6875 0.921875q-0.234375 0.59375 -0.234375 1.46875q0 0.875 0.234375 1.484375q0.25 0.59375 0.6875 0.90625q0.4375 0.3125 1.0 0.3125zm4.7064667 0.5625l0 -6.25l0.296875 0.3125l-1.84375 0l0 -0.59375l2.21875 0l0 6.53125l-0.671875 0zm3.367447 0l0 -6.25l0.296875 0.3125l-1.84375 0l0 -0.59375l2.21875 0l0 6.53125l-0.671875 0zm3.367447 0l0 -6.25l0.296875 0.3125l-1.84375 0l0 -0.59375l2.21875 0l0 6.53125l-0.671875 0zm3.367447 0l0 -6.25l0.296875 0.3125l-1.84375 0l0 -0.59375l2.21875 0l0 6.53125l-0.671875 0z" fill-rule="nonzero"/></g><g filter="url(#shadowFilter-p.12)"><use xlink:href="#p.12" transform=""/></g><defs><filter id="shadowFilter-p.12" filterUnits="userSpaceOnUse"><feGaussianBlur in="SourceAlpha" stdDeviation="2.5" result="blur"/><feComponentTransfer in="blur" color-interpolation-filters="sRGB"><feFuncR type="linear" slope="0" intercept="0.0"/><feFuncG type="linear" slope="0" intercept="0.0"/><feFuncB type="linear" slope="0" intercept="0.0"/><feFuncA type="linear" slope="0.6" intercept="0"/></feComponentTransfer></filter></defs><g id="p.12"><path fill="#000000" fill-opacity="0.0" d="m109.39315 101.81239l0 0c0 -1.7569046 1.424263 -3.18116 3.1811676 -3.18116l57.669167 0c0.84368896 0 1.652832 0.33515167 2.2494202 0.9317398c0.59658813 0.5965805 0.93174744 1.4057236 0.93174744 2.2494202l0 12.724289c0 1.7569046 -1.4242554 3.18116 -3.1811676 3.18116l-57.669167 0c-1.7569046 0 -3.1811676 -1.4242554 -3.1811676 -3.18116z" fill-rule="evenodd"/><path stroke="#ffff00" stroke-width="1.0" stroke-linejoin="round" stroke-linecap="butt" d="m109.39315 101.81239l0 0c0 -1.7569046 1.424263 -3.18116 3.1811676 -3.18116l57.669167 0c0.84368896 0 1.652832 0.33515167 2.2494202 0.9317398c0.59658813 0.5965805 0.93174744 1.4057236 0.93174744 2.2494202l0 12.724289c0 1.7569046 -1.4242554 3.18116 -3.1811676 3.18116l-57.669167 0c-1.7569046 0 -3.1811676 -1.4242554 -3.1811676 -3.18116z" fill-rule="evenodd"/><path fill="#ffff00" d="m128.71991 111.63454l0 -6.25l0.296875 0.3125l-1.84375 0l0 -0.59375l2.21875 0l0 6.53125l-0.671875 0zm3.367447 0l0 -6.25l0.296875 0.3125l-1.84375 0l0 -0.59375l2.21875 0l0 6.53125l-0.671875 0zm3.367447 0l0 -6.25l0.296875 0.3125l-1.84375 0l0 -0.59375l2.21875 0l0 6.53125l-0.671875 0zm4.836197 0.0625q-0.765625 0 -1.359375 -0.390625q-0.578125 -0.40625 -0.921875 -1.140625q-0.328125 -0.75 -0.328125 -1.796875q0 -1.046875 0.328125 -1.78125q0.34375 -0.75 0.921875 -1.140625q0.59375 -0.390625 1.359375 -0.390625q0.75 0 1.328125 0.390625q0.59375 0.390625 0.9375 1.140625q0.34375 0.734375 0.34375 1.78125q0 1.046875 -0.34375 1.796875q-0.34375 0.734375 -0.9375 1.140625q-0.578125 0.390625 -1.328125 0.390625zm0 -0.625q0.578125 0 1.0 -0.3125q0.4375 -0.3125 0.671875 -0.90625q0.25 -0.609375 0.25 -1.484375q0 -0.875 -0.25 -1.46875q-0.234375 -0.609375 -0.671875 -0.921875q-0.421875 -0.3125 -1.0 -0.3125q-0.5625 0 -1.0 0.3125q-0.4375 0.3125 -0.6875 0.921875q-0.234375 0.59375 -0.234375 1.46875q0 0.875 0.234375 1.484375q0.25 0.59375 0.6875 0.90625q0.4375 0.3125 1.0 0.3125zm6.1752167 0.625q-0.765625 0 -1.359375 -0.390625q-0.578125 -0.40625 -0.921875 -1.140625q-0.328125 -0.75 -0.328125 -1.796875q0 -1.046875 0.328125 -1.78125q0.34375 -0.75 0.921875 -1.140625q0.59375 -0.390625 1.359375 -0.390625q0.75 0 1.328125 0.390625q0.59375 0.390625 0.9375 1.140625q0.34375 0.734375 0.34375 1.78125q0 1.046875 -0.34375 1.796875q-0.34375 0.734375 -0.9375 1.140625q-0.578125 0.390625 -1.328125 0.390625zm0 -0.625q0.578125 0 1.0 -0.3125q0.4375 -0.3125 0.671875 -0.90625q0.25 -0.609375 0.25 -1.484375q0 -0.875 -0.25 -1.46875q-0.234375 -0.609375 -0.671875 -0.921875q-0.421875 -0.3125 -1.0 -0.3125q-0.5625 0 -1.0 0.3125q-0.4375 0.3125 -0.6875 0.921875q-0.234375 0.59375 -0.234375 1.46875q0 0.875 0.234375 1.484375q0.25 0.59375 0.6875 0.90625q0.4375 0.3125 1.0 0.3125zm6.1752167 0.625q-0.765625 0 -1.359375 -0.390625q-0.578125 -0.40625 -0.921875 -1.140625q-0.328125 -0.75 -0.328125 -1.796875q0 -1.046875 0.328125 -1.78125q0.34375 -0.75 0.921875 -1.140625q0.59375 -0.390625 1.359375 -0.390625q0.75 0 1.328125 0.390625q0.59375 0.390625 0.9375 1.140625q0.34375 0.734375 0.34375 1.78125q0 1.046875 -0.34375 1.796875q-0.34375 0.734375 -0.9375 1.140625q-0.578125 0.390625 -1.328125 0.390625zm0 -0.625q0.578125 0 1.0 -0.3125q0.4375 -0.3125 0.671875 -0.90625q0.25 -0.609375 0.25 -1.484375q0 -0.875 -0.25 -1.46875q-0.234375 -0.609375 -0.671875 -0.921875q-0.421875 -0.3125 -1.0 -0.3125q-0.5625 0 -1.0 0.3125q-0.4375 0.3125 -0.6875 0.921875q-0.234375 0.59375 -0.234375 1.46875q0 0.875 0.234375 1.484375q0.25 0.59375 0.6875 0.90625q0.4375 0.3125 1.0 0.3125z" fill-rule="nonzero"/></g><g filter="url(#shadowFilter-p.13)"><use xlink:href="#p.13" transform=""/></g><defs><filter id="shadowFilter-p.13" filterUnits="userSpaceOnUse"><feGaussianBlur in="SourceAlpha" stdDeviation="2.5" result="blur"/><feComponentTransfer in="blur" color-interpolation-filters="sRGB"><feFuncR type="linear" slope="0" intercept="0.0"/><feFuncG type="linear" slope="0" intercept="0.0"/><feFuncB type="linear" slope="0" intercept="0.0"/><feFuncA type="linear" slope="0.6" intercept="0"/></feComponentTransfer></filter></defs><g id="p.13"><path fill="#000000" fill-opacity="0.0" d="m109.39315 82.71966l0 0c0 -1.7569046 1.424263 -3.1811676 3.1811676 -3.1811676l57.669167 0c0.84368896 0 1.652832 0.3351593 2.2494202 0.93174744c0.59658813 0.5965805 0.93174744 1.4057236 0.93174744 2.2494202l0 12.724281c0 1.7569122 -1.4242554 3.1811676 -3.1811676 3.1811676l-57.669167 0c-1.7569046 0 -3.1811676 -1.4242554 -3.1811676 -3.1811676z" fill-rule="evenodd"/><path stroke="#ffff00" stroke-width="1.0" stroke-linejoin="round" stroke-linecap="butt" d="m109.39315 82.71966l0 0c0 -1.7569046 1.424263 -3.1811676 3.1811676 -3.1811676l57.669167 0c0.84368896 0 1.652832 0.3351593 2.2494202 0.93174744c0.59658813 0.5965805 0.93174744 1.4057236 0.93174744 2.2494202l0 12.724281c0 1.7569122 -1.4242554 3.1811676 -3.1811676 3.1811676l-57.669167 0c-1.7569046 0 -3.1811676 -1.4242554 -3.1811676 -3.1811676z" fill-rule="evenodd"/><path fill="#ffff00" d="m130.18866 92.6043q-0.765625 0 -1.359375 -0.390625q-0.578125 -0.40625 -0.921875 -1.140625q-0.328125 -0.75 -0.328125 -1.796875q0 -1.046875 0.328125 -1.78125q0.34375 -0.75 0.921875 -1.140625q0.59375 -0.390625 1.359375 -0.390625q0.75 0 1.328125 0.390625q0.59375 0.390625 0.9375 1.140625q0.34375 0.734375 0.34375 1.78125q0 1.046875 -0.34375 1.796875q-0.34375 0.734375 -0.9375 1.140625q-0.578125 0.390625 -1.328125 0.390625zm0 -0.625q0.578125 0 1.0 -0.3125q0.4375 -0.3125 0.671875 -0.90625q0.25 -0.609375 0.25 -1.484375q0 -0.875 -0.25 -1.46875q-0.234375 -0.609375 -0.671875 -0.921875q-0.421875 -0.3125 -1.0 -0.3125q-0.5625 0 -1.0 0.3125q-0.4375 0.3125 -0.6875 0.921875q-0.234375 0.59375 -0.234375 1.46875q0 0.875 0.234375 1.484375q0.25 0.59375 0.6875 0.90625q0.4375 0.3125 1.0 0.3125zm4.7064667 0.5625l0 -6.25l0.296875 0.3125l-1.84375 0l0 -0.59375l2.21875 0l0 6.53125l-0.671875 0zm4.836197 0.0625q-0.765625 0 -1.359375 -0.390625q-0.578125 -0.40625 -0.921875 -1.140625q-0.328125 -0.75 -0.328125 -1.796875q0 -1.046875 0.328125 -1.78125q0.34375 -0.75 0.921875 -1.140625q0.59375 -0.390625 1.359375 -0.390625q0.75 0 1.328125 0.390625q0.59375 0.390625 0.9375 1.140625q0.34375 0.734375 0.34375 1.78125q0 1.046875 -0.34375 1.796875q-0.34375 0.734375 -0.9375 1.140625q-0.578125 0.390625 -1.328125 0.390625zm0 -0.625q0.578125 0 1.0 -0.3125q0.4375 -0.3125 0.671875 -0.90625q0.25 -0.609375 0.25 -1.484375q0 -0.875 -0.25 -1.46875q-0.234375 -0.609375 -0.671875 -0.921875q-0.421875 -0.3125 -1.0 -0.3125q-0.5625 0 -1.0 0.3125q-0.4375 0.3125 -0.6875 0.921875q-0.234375 0.59375 -0.234375 1.46875q0 0.875 0.234375 1.484375q0.25 0.59375 0.6875 0.90625q0.4375 0.3125 1.0 0.3125zm6.1752167 0.625q-0.765625 0 -1.359375 -0.390625q-0.578125 -0.40625 -0.921875 -1.140625q-0.328125 -0.75 -0.328125 -1.796875q0 -1.046875 0.328125 -1.78125q0.34375 -0.75 0.921875 -1.140625q0.59375 -0.390625 1.359375 -0.390625q0.75 0 1.328125 0.390625q0.59375 0.390625 0.9375 1.140625q0.34375 0.734375 0.34375 1.78125q0 1.046875 -0.34375 1.796875q-0.34375 0.734375 -0.9375 1.140625q-0.578125 0.390625 -1.328125 0.390625zm0 -0.625q0.578125 0 1.0 -0.3125q0.4375 -0.3125 0.671875 -0.90625q0.25 -0.609375 0.25 -1.484375q0 -0.875 -0.25 -1.46875q-0.234375 -0.609375 -0.671875 -0.921875q-0.421875 -0.3125 -1.0 -0.3125q-0.5625 0 -1.0 0.3125q-0.4375 0.3125 -0.6875 0.921875q-0.234375 0.59375 -0.234375 1.46875q0 0.875 0.234375 1.484375q0.25 0.59375 0.6875 0.90625q0.4375 0.3125 1.0 0.3125zm4.7064667 0.5625l0 -6.25l0.296875 0.3125l-1.84375 0l0 -0.59375l2.21875 0l0 6.53125l-0.671875 0zm3.367447 0l0 -6.25l0.296875 0.3125l-1.84375 0l0 -0.59375l2.21875 0l0 6.53125l-0.671875 0z" fill-rule="nonzero"/></g><g filter="url(#shadowFilter-p.14)"><use xlink:href="#p.14" transform=""/></g><defs><filter id="shadowFilter-p.14" filterUnits="userSpaceOnUse"><feGaussianBlur in="SourceAlpha" stdDeviation="2.5" result="blur"/><feComponentTransfer in="blur" color-interpolation-filters="sRGB"><feFuncR type="linear" slope="0" intercept="0.0"/><feFuncG type="linear" slope="0" intercept="0.0"/><feFuncB type="linear" slope="0" intercept="0.0"/><feFuncA type="linear" slope="0.6" intercept="0"/></feComponentTransfer></filter></defs><g id="p.14"><path fill="#000000" fill-opacity="0.0" d="m109.39315 63.626923l0 0c0 -1.7569084 1.424263 -3.1811676 3.1811676 -3.1811676l57.669167 0c0.84368896 0 1.652832 0.3351593 2.2494202 0.9317436c0.59658813 0.5965843 0.93174744 1.4057274 0.93174744 2.249424l0 12.724281c0 1.7569122 -1.4242554 3.1811676 -3.1811676 3.1811676l-57.669167 0c-1.7569046 0 -3.1811676 -1.4242554 -3.1811676 -3.1811676z" fill-rule="evenodd"/><path stroke="#ffff00" stroke-width="1.0" stroke-linejoin="round" stroke-linecap="butt" d="m109.39315 63.626923l0 0c0 -1.7569084 1.424263 -3.1811676 3.1811676 -3.1811676l57.669167 0c0.84368896 0 1.652832 0.3351593 2.2494202 0.9317436c0.59658813 0.5965843 0.93174744 1.4057274 0.93174744 2.249424l0 12.724281c0 1.7569122 -1.4242554 3.1811676 -3.1811676 3.1811676l-57.669167 0c-1.7569046 0 -3.1811676 -1.4242554 -3.1811676 -3.1811676z" fill-rule="evenodd"/><path fill="#ffff00" d="m130.1238 73.44906l0 -6.25l0.296875 0.3125l-1.84375 0l0 -0.59375l2.21875 0l0 6.53125l-0.671875 0zm3.367447 0l0 -6.25l0.296875 0.3125l-1.84375 0l0 -0.59375l2.21875 0l0 6.53125l-0.671875 0zm3.367447 0l0 -6.25l0.296875 0.3125l-1.84375 0l0 -0.59375l2.21875 0l0 6.53125l-0.671875 0zm4.836197 0.0625q-0.765625 0 -1.359375 -0.390625q-0.578125 -0.40625 -0.921875 -1.140625q-0.328125 -0.75 -0.328125 -1.796875q0 -1.046875 0.328125 -1.78125q0.34375 -0.75 0.921875 -1.140625q0.59375 -0.390625 1.359375 -0.390625q0.75 0 1.328125 0.390625q0.59375 0.390625 0.9375 1.140625q0.34375 0.734375 0.34375 1.78125q0 1.046875 -0.34375 1.796875q-0.34375 0.734375 -0.9375 1.140625q-0.578125 0.390625 -1.328125 0.390625zm0 -0.625q0.578125 0 1.0 -0.3125q0.4375 -0.3125 0.671875 -0.90625q0.25 -0.609375 0.25 -1.484375q0 -0.875 -0.25 -1.46875q-0.234375 -0.609375 -0.671875 -0.921875q-0.421875 -0.3125 -1.0 -0.3125q-0.5625 0 -1.0 0.3125q-0.4375 0.3125 -0.6875 0.921875q-0.234375 0.59375 -0.234375 1.46875q0 0.875 0.234375 1.484375q0.25 0.59375 0.6875 0.90625q0.4375 0.3125 1.0 0.3125zm6.1752167 0.625q-0.765625 0 -1.359375 -0.390625q-0.578125 -0.40625 -0.921875 -1.140625q-0.328125 -0.75 -0.328125 -1.796875q0 -1.046875 0.328125 -1.78125q0.34375 -0.75 0.921875 -1.140625q0.59375 -0.390625 1.359375 -0.390625q0.75 0 1.328125 0.390625q0.59375 0.390625 0.9375 1.140625q0.34375 0.734375 0.34375 1.78125q0 1.046875 -0.34375 1.796875q-0.34375 0.734375 -0.9375 1.140625q-0.578125 0.390625 -1.328125 0.390625zm0 -0.625q0.578125 0 1.0 -0.3125q0.4375 -0.3125 0.671875 -0.90625q0.25 -0.609375 0.25 -1.484375q0 -0.875 -0.25 -1.46875q-0.234375 -0.609375 -0.671875 -0.921875q-0.421875 -0.3125 -1.0 -0.3125q-0.5625 0 -1.0 0.3125q-0.4375 0.3125 -0.6875 0.921875q-0.234375 0.59375 -0.234375 1.46875q0 0.875 0.234375 1.484375q0.25 0.59375 0.6875 0.90625q0.4375 0.3125 1.0 0.3125zm4.7064667 0.5625l0 -6.25l0.296875 0.3125l-1.84375 0l0 -0.59375l2.21875 0l0 6.53125l-0.671875 0z" fill-rule="nonzero"/></g><g filter="url(#shadowFilter-p.15)"><use xlink:href="#p.15" transform=""/></g><defs><filter id="shadowFilter-p.15" filterUnits="userSpaceOnUse"><feGaussianBlur in="SourceAlpha" stdDeviation="2.5" result="blur"/><feComponentTransfer in="blur" color-interpolation-filters="sRGB"><feFuncR type="linear" slope="0" intercept="0.0"/><feFuncG type="linear" slope="0" intercept="0.0"/><feFuncB type="linear" slope="0" intercept="0.0"/><feFuncA type="linear" slope="0.6" intercept="0"/></feComponentTransfer></filter></defs><g id="p.15"><path fill="#000000" fill-opacity="0.0" d="m242.86089 44.534184l0 0c0 -1.7569084 1.4242554 -3.1811638 3.1811676 -3.1811638l55.77939 0c0.8437195 0 1.6528625 0.3351555 2.2494507 0.9317398c0.5965576 0.5965843 0.9317322 1.4057274 0.9317322 2.249424l0 12.724281c0 1.7569122 -1.4242554 3.1811676 -3.1811829 3.1811676l-55.77939 0c-1.7569122 0 -3.1811676 -1.4242554 -3.1811676 -3.1811676z" fill-rule="evenodd"/><path stroke="#00ff00" stroke-width="1.0" stroke-linejoin="round" stroke-linecap="butt" d="m242.86089 44.534184l0 0c0 -1.7569084 1.4242554 -3.1811638 3.1811676 -3.1811638l55.77939 0c0.8437195 0 1.6528625 0.3351555 2.2494507 0.9317398c0.5965576 0.5965843 0.9317322 1.4057274 0.9317322 2.249424l0 12.724281c0 1.7569122 -1.4242554 3.1811676 -3.1811829 3.1811676l-55.77939 0c-1.7569122 0 -3.1811676 -1.4242554 -3.1811676 -3.1811676z" fill-rule="evenodd"/><path fill="#00ff00" d="m261.24277 54.356323l0 -6.25l0.296875 0.3125l-1.84375 0l0 -0.59375l2.21875 0l0 6.53125l-0.671875 0zm4.8361816 0.0625q-0.765625 0 -1.359375 -0.390625q-0.578125 -0.40625 -0.921875 -1.140625q-0.328125 -0.75 -0.328125 -1.796875q0 -1.046875 0.328125 -1.78125q0.34375 -0.75 0.921875 -1.140625q0.59375 -0.390625 1.359375 -0.390625q0.75 0 1.328125 0.390625q0.59375 0.390625 0.9375 1.140625q0.34375 0.734375 0.34375 1.78125q0 1.046875 -0.34375 1.796875q-0.34375 0.734375 -0.9375 1.140625q-0.578125 0.390625 -1.328125 0.390625zm0 -0.625q0.578125 0 1.0 -0.3125q0.4375 -0.3125 0.671875 -0.90625q0.25 -0.609375 0.25 -1.484375q0 -0.875 -0.25 -1.46875q-0.234375 -0.609375 -0.671875 -0.921875q-0.421875 -0.3125 -1.0 -0.3125q-0.5625 0 -1.0 0.3125q-0.4375 0.3125 -0.6875 0.921875q-0.234375 0.59375 -0.234375 1.46875q0 0.875 0.234375 1.484375q0.25 0.59375 0.6875 0.90625q0.4375 0.3125 1.0 0.3125zm6.175232 0.625q-0.765625 0 -1.359375 -0.390625q-0.578125 -0.40625 -0.921875 -1.140625q-0.328125 -0.75 -0.328125 -1.796875q0 -1.046875 0.328125 -1.78125q0.34375 -0.75 0.921875 -1.140625q0.59375 -0.390625 1.359375 -0.390625q0.75 0 1.328125 0.390625q0.59375 0.390625 0.9375 1.140625q0.34375 0.734375 0.34375 1.78125q0 1.046875 -0.34375 1.796875q-0.34375 0.734375 -0.9375 1.140625q-0.578125 0.390625 -1.328125 0.390625zm0 -0.625q0.578125 0 1.0 -0.3125q0.4375 -0.3125 0.671875 -0.90625q0.25 -0.609375 0.25 -1.484375q0 -0.875 -0.25 -1.46875q-0.234375 -0.609375 -0.671875 -0.921875q-0.421875 -0.3125 -1.0 -0.3125q-0.5625 0 -1.0 0.3125q-0.4375 0.3125 -0.6875 0.921875q-0.234375 0.59375 -0.234375 1.46875q0 0.875 0.234375 1.484375q0.25 0.59375 0.6875 0.90625q0.4375 0.3125 1.0 0.3125zm6.1752014 0.625q-0.765625 0 -1.359375 -0.390625q-0.578125 -0.40625 -0.921875 -1.140625q-0.328125 -0.75 -0.328125 -1.796875q0 -1.046875 0.328125 -1.78125q0.34375 -0.75 0.921875 -1.140625q0.59375 -0.390625 1.359375 -0.390625q0.75 0 1.328125 0.390625q0.59375 0.390625 0.9375 1.140625q0.34375 0.734375 0.34375 1.78125q0 1.046875 -0.34375 1.796875q-0.34375 0.734375 -0.9375 1.140625q-0.578125 0.390625 -1.328125 0.390625zm0 -0.625q0.578125 0 1.0 -0.3125q0.4375 -0.3125 0.671875 -0.90625q0.25 -0.609375 0.25 -1.484375q0 -0.875 -0.25 -1.46875q-0.234375 -0.609375 -0.671875 -0.921875q-0.421875 -0.3125 -1.0 -0.3125q-0.5625 0 -1.0 0.3125q-0.4375 0.3125 -0.6875 0.921875q-0.234375 0.59375 -0.234375 1.46875q0 0.875 0.234375 1.484375q0.25 0.59375 0.6875 0.90625q0.4375 0.3125 1.0 0.3125zm4.706482 0.5625l0 -6.25l0.296875 0.3125l-1.84375 0l0 -0.59375l2.21875 0l0 6.53125l-0.671875 0zm3.3674316 0l0 -6.25l0.296875 0.3125l-1.84375 0l0 -0.59375l2.21875 0l0 6.53125l-0.671875 0z" fill-rule="nonzero"/></g><g filter="url(#shadowFilter-p.16)"><use xlink:href="#p.16" transform=""/></g><defs><filter id="shadowFilter-p.16" filterUnits="userSpaceOnUse"><feGaussianBlur in="SourceAlpha" stdDeviation="2.5" result="blur"/><feComponentTransfer in="blur" color-interpolation-filters="sRGB"><feFuncR type="linear" slope="0" intercept="0.0"/><feFuncG type="linear" slope="0" intercept="0.0"/><feFuncB type="linear" slope="0" intercept="0.0"/><feFuncA type="linear" slope="0.6" intercept="0"/></feComponentTransfer></filter></defs><g id="p.16"><path fill="#000000" fill-opacity="0.0" d="m242.86089 63.626923l0 0c0 -1.7569084 1.4242554 -3.1811676 3.1811676 -3.1811676l55.77939 0c0.8437195 0 1.6528625 0.3351593 2.2494507 0.9317436c0.5965576 0.5965843 0.9317322 1.4057274 0.9317322 2.249424l0 12.724281c0 1.7569122 -1.4242554 3.1811676 -3.1811829 3.1811676l-55.77939 0c-1.7569122 0 -3.1811676 -1.4242554 -3.1811676 -3.1811676z" fill-rule="evenodd"/><path stroke="#00ff00" stroke-width="1.0" stroke-linejoin="round" stroke-linecap="butt" d="m242.86089 63.626923l0 0c0 -1.7569084 1.4242554 -3.1811676 3.1811676 -3.1811676l55.77939 0c0.8437195 0 1.6528625 0.3351593 2.2494507 0.9317436c0.5965576 0.5965843 0.9317322 1.4057274 0.9317322 2.249424l0 12.724281c0 1.7569122 -1.4242554 3.1811676 -3.1811829 3.1811676l-55.77939 0c-1.7569122 0 -3.1811676 -1.4242554 -3.1811676 -3.1811676z" fill-rule="evenodd"/><path fill="#00ff00" d="m262.64664 73.449066l0 -6.25l0.296875 0.3125l-1.84375 0l0 -0.59375l2.21875 0l0 6.53125l-0.671875 0zm3.3674622 0l0 -6.25l0.296875 0.3125l-1.84375 0l0 -0.59375l2.21875 0l0 6.53125l-0.671875 0zm3.3674316 0l0 -6.25l0.296875 0.3125l-1.84375 0l0 -0.59375l2.21875 0l0 6.53125l-0.671875 0zm4.836212 0.0625q-0.765625 0 -1.359375 -0.390625q-0.578125 -0.40625 -0.921875 -1.140625q-0.328125 -0.75 -0.328125 -1.796875q0 -1.046875 0.328125 -1.78125q0.34375 -0.75 0.921875 -1.140625q0.59375 -0.390625 1.359375 -0.390625q0.75 0 1.328125 0.390625q0.59375 0.390625 0.9375 1.140625q0.34375 0.734375 0.34375 1.78125q0 1.046875 -0.34375 1.796875q-0.34375 0.734375 -0.9375 1.140625q-0.578125 0.390625 -1.328125 0.390625zm0 -0.625q0.578125 0 1.0 -0.3125q0.4375 -0.3125 0.671875 -0.90625q0.25 -0.609375 0.25 -1.484375q0 -0.875 -0.25 -1.46875q-0.234375 -0.609375 -0.671875 -0.921875q-0.421875 -0.3125 -1.0 -0.3125q-0.5625 0 -1.0 0.3125q-0.4375 0.3125 -0.6875 0.921875q-0.234375 0.59375 -0.234375 1.46875q0 0.875 0.234375 1.484375q0.25 0.59375 0.6875 0.90625q0.4375 0.3125 1.0 0.3125zm6.1752014 0.625q-0.765625 0 -1.359375 -0.390625q-0.578125 -0.40625 -0.921875 -1.140625q-0.328125 -0.75 -0.328125 -1.796875q0 -1.046875 0.328125 -1.78125q0.34375 -0.75 0.921875 -1.140625q0.59375 -0.390625 1.359375 -0.390625q0.75 0 1.328125 0.390625q0.59375 0.390625 0.9375 1.140625q0.34375 0.734375 0.34375 1.78125q0 1.046875 -0.34375 1.796875q-0.34375 0.734375 -0.9375 1.140625q-0.578125 0.390625 -1.328125 0.390625zm0 -0.625q0.578125 0 1.0 -0.3125q0.4375 -0.3125 0.671875 -0.90625q0.25 -0.609375 0.25 -1.484375q0 -0.875 -0.25 -1.46875q-0.234375 -0.609375 -0.671875 -0.921875q-0.421875 -0.3125 -1.0 -0.3125q-0.5625 0 -1.0 0.3125q-0.4375 0.3125 -0.6875 0.921875q-0.234375 0.59375 -0.234375 1.46875q0 0.875 0.234375 1.484375q0.25 0.59375 0.6875 0.90625q0.4375 0.3125 1.0 0.3125zm4.706482 0.5625l0 -6.25l0.296875 0.3125l-1.84375 0l0 -0.59375l2.21875 0l0 6.53125l-0.671875 0z" fill-rule="nonzero"/></g><g filter="url(#shadowFilter-p.17)"><use xlink:href="#p.17" transform=""/></g><defs><filter id="shadowFilter-p.17" filterUnits="userSpaceOnUse"><feGaussianBlur in="SourceAlpha" stdDeviation="2.5" result="blur"/><feComponentTransfer in="blur" color-interpolation-filters="sRGB"><feFuncR type="linear" slope="0" intercept="0.0"/><feFuncG type="linear" slope="0" intercept="0.0"/><feFuncB type="linear" slope="0" intercept="0.0"/><feFuncA type="linear" slope="0.6" intercept="0"/></feComponentTransfer></filter></defs><g id="p.17"><path fill="#000000" fill-opacity="0.0" d="m242.86089 82.71966l0 0c0 -1.7569046 1.4242554 -3.18116 3.1811676 -3.18116l55.77939 0c0.8437195 0 1.6528625 0.33515167 2.2494507 0.9317398c0.5965576 0.5965805 0.9317322 1.4057236 0.9317322 2.2494202l0 12.724289c0 1.7569046 -1.4242554 3.18116 -3.1811829 3.18116l-55.77939 0c-1.7569122 0 -3.1811676 -1.4242554 -3.1811676 -3.18116z" fill-rule="evenodd"/><path stroke="#00ff00" stroke-width="1.0" stroke-linejoin="round" stroke-linecap="butt" d="m242.86089 82.71966l0 0c0 -1.7569046 1.4242554 -3.18116 3.1811676 -3.18116l55.77939 0c0.8437195 0 1.6528625 0.33515167 2.2494507 0.9317398c0.5965576 0.5965805 0.9317322 1.4057236 0.9317322 2.2494202l0 12.724289c0 1.7569046 -1.4242554 3.18116 -3.1811829 3.18116l-55.77939 0c-1.7569122 0 -3.1811676 -1.4242554 -3.1811676 -3.18116z" fill-rule="evenodd"/><path fill="#00ff00" d="m265.5193 92.6043q-0.765625 0 -1.359375 -0.390625q-0.578125 -0.40625 -0.921875 -1.140625q-0.328125 -0.75 -0.328125 -1.796875q0 -1.046875 0.328125 -1.78125q0.34375 -0.75 0.921875 -1.140625q0.59375 -0.390625 1.359375 -0.390625q0.75 0 1.328125 0.390625q0.59375 0.390625 0.9375 1.140625q0.34375 0.734375 0.34375 1.78125q0 1.046875 -0.34375 1.796875q-0.34375 0.734375 -0.9375 1.140625q-0.578125 0.390625 -1.328125 0.390625zm0 -0.625q0.578125 0 1.0 -0.3125q0.4375 -0.3125 0.671875 -0.90625q0.25 -0.609375 0.25 -1.484375q0 -0.875 -0.25 -1.46875q-0.234375 -0.609375 -0.671875 -0.921875q-0.421875 -0.3125 -1.0 -0.3125q-0.5625 0 -1.0 0.3125q-0.4375 0.3125 -0.6875 0.921875q-0.234375 0.59375 -0.234375 1.46875q0 0.875 0.234375 1.484375q0.25 0.59375 0.6875 0.90625q0.4375 0.3125 1.0 0.3125zm4.7064514 0.5625l0 -6.25l0.296875 0.3125l-1.84375 0l0 -0.59375l2.21875 0l0 6.53125l-0.671875 0zm3.3674622 0l0 -6.25l0.296875 0.3125l-1.84375 0l0 -0.59375l2.21875 0l0 6.53125l-0.671875 0zm3.3674316 0l0 -6.25l0.296875 0.3125l-1.84375 0l0 -0.59375l2.21875 0l0 6.53125l-0.671875 0zm3.3674622 0l0 -6.25l0.296875 0.3125l-1.84375 0l0 -0.59375l2.21875 0l0 6.53125l-0.671875 0zm3.3674316 0l0 -6.25l0.296875 0.3125l-1.84375 0l0 -0.59375l2.21875 0l0 6.53125l-0.671875 0z" fill-rule="nonzero"/></g><g filter="url(#shadowFilter-p.18)"><use xlink:href="#p.18" transform=""/></g><defs><filter id="shadowFilter-p.18" filterUnits="userSpaceOnUse"><feGaussianBlur in="SourceAlpha" stdDeviation="2.5" result="blur"/><feComponentTransfer in="blur" color-interpolation-filters="sRGB"><feFuncR type="linear" slope="0" intercept="0.0"/><feFuncG type="linear" slope="0" intercept="0.0"/><feFuncB type="linear" slope="0" intercept="0.0"/><feFuncA type="linear" slope="0.6" intercept="0"/></feComponentTransfer></filter></defs><g id="p.18"><path fill="#000000" fill-opacity="0.0" d="m242.86089 101.8124l0 0c0 -1.7569122 1.4242554 -3.1811676 3.1811676 -3.1811676l55.77939 0c0.8437195 0 1.6528625 0.3351593 2.2494507 0.9317398c0.5965576 0.59658813 0.9317322 1.4057312 0.9317322 2.2494278l0 12.724281c0 1.7569046 -1.4242554 3.1811676 -3.1811829 3.1811676l-55.77939 0c-1.7569122 0 -3.1811676 -1.424263 -3.1811676 -3.1811676z" fill-rule="evenodd"/><path stroke="#00ff00" stroke-width="1.0" stroke-linejoin="round" stroke-linecap="butt" d="m242.86089 101.8124l0 0c0 -1.7569122 1.4242554 -3.1811676 3.1811676 -3.1811676l55.77939 0c0.8437195 0 1.6528625 0.3351593 2.2494507 0.9317398c0.5965576 0.59658813 0.9317322 1.4057312 0.9317322 2.2494278l0 12.724281c0 1.7569046 -1.4242554 3.1811676 -3.1811829 3.1811676l-55.77939 0c-1.7569122 0 -3.1811676 -1.424263 -3.1811676 -3.1811676z" fill-rule="evenodd"/><path fill="#00ff00" d="m261.24277 111.63454l0 -6.25l0.296875 0.3125l-1.84375 0l0 -0.59375l2.21875 0l0 6.53125l-0.671875 0zm3.3674316 0l0 -6.25l0.296875 0.3125l-1.84375 0l0 -0.59375l2.21875 0l0 6.53125l-0.671875 0zm3.3674622 0l0 -6.25l0.296875 0.3125l-1.84375 0l0 -0.59375l2.21875 0l0 6.53125l-0.671875 0zm4.8361816 0.0625q-0.765625 0 -1.359375 -0.390625q-0.578125 -0.40625 -0.921875 -1.140625q-0.328125 -0.75 -0.328125 -1.796875q0 -1.046875 0.328125 -1.78125q0.34375 -0.75 0.921875 -1.140625q0.59375 -0.390625 1.359375 -0.390625q0.75 0 1.328125 0.390625q0.59375 0.390625 0.9375 1.140625q0.34375 0.734375 0.34375 1.78125q0 1.046875 -0.34375 1.796875q-0.34375 0.734375 -0.9375 1.140625q-0.578125 0.390625 -1.328125 0.390625zm0 -0.625q0.578125 0 1.0 -0.3125q0.4375 -0.3125 0.671875 -0.90625q0.25 -0.609375 0.25 -1.484375q0 -0.875 -0.25 -1.46875q-0.234375 -0.609375 -0.671875 -0.921875q-0.421875 -0.3125 -1.0 -0.3125q-0.5625 0 -1.0 0.3125q-0.4375 0.3125 -0.6875 0.921875q-0.234375 0.59375 -0.234375 1.46875q0 0.875 0.234375 1.484375q0.25 0.59375 0.6875 0.90625q0.4375 0.3125 1.0 0.3125zm6.175232 0.625q-0.765625 0 -1.359375 -0.390625q-0.578125 -0.40625 -0.921875 -1.140625q-0.328125 -0.75 -0.328125 -1.796875q0 -1.046875 0.328125 -1.78125q0.34375 -0.75 0.921875 -1.140625q0.59375 -0.390625 1.359375 -0.390625q0.75 0 1.328125 0.390625q0.59375 0.390625 0.9375 1.140625q0.34375 0.734375 0.34375 1.78125q0 1.046875 -0.34375 1.796875q-0.34375 0.734375 -0.9375 1.140625q-0.578125 0.390625 -1.328125 0.390625zm0 -0.625q0.578125 0 1.0 -0.3125q0.4375 -0.3125 0.671875 -0.90625q0.25 -0.609375 0.25 -1.484375q0 -0.875 -0.25 -1.46875q-0.234375 -0.609375 -0.671875 -0.921875q-0.421875 -0.3125 -1.0 -0.3125q-0.5625 0 -1.0 0.3125q-0.4375 0.3125 -0.6875 0.921875q-0.234375 0.59375 -0.234375 1.46875q0 0.875 0.234375 1.484375q0.25 0.59375 0.6875 0.90625q0.4375 0.3125 1.0 0.3125zm6.1752014 0.625q-0.765625 0 -1.359375 -0.390625q-0.578125 -0.40625 -0.921875 -1.140625q-0.328125 -0.75 -0.328125 -1.796875q0 -1.046875 0.328125 -1.78125q0.34375 -0.75 0.921875 -1.140625q0.59375 -0.390625 1.359375 -0.390625q0.75 0 1.328125 0.390625q0.59375 0.390625 0.9375 1.140625q0.34375 0.734375 0.34375 1.78125q0 1.046875 -0.34375 1.796875q-0.34375 0.734375 -0.9375 1.140625q-0.578125 0.390625 -1.328125 0.390625zm0 -0.625q0.578125 0 1.0 -0.3125q0.4375 -0.3125 0.671875 -0.90625q0.25 -0.609375 0.25 -1.484375q0 -0.875 -0.25 -1.46875q-0.234375 -0.609375 -0.671875 -0.921875q-0.421875 -0.3125 -1.0 -0.3125q-0.5625 0 -1.0 0.3125q-0.4375 0.3125 -0.6875 0.921875q-0.234375 0.59375 -0.234375 1.46875q0 0.875 0.234375 1.484375q0.25 0.59375 0.6875 0.90625q0.4375 0.3125 1.0 0.3125z" fill-rule="nonzero"/></g><g filter="url(#shadowFilter-p.19)"><use xlink:href="#p.19" transform=""/></g><defs><filter id="shadowFilter-p.19" filterUnits="userSpaceOnUse"><feGaussianBlur in="SourceAlpha" stdDeviation="2.5" result="blur"/><feComponentTransfer in="blur" color-interpolation-filters="sRGB"><feFuncR type="linear" slope="0" intercept="0.0"/><feFuncG type="linear" slope="0" intercept="0.0"/><feFuncB type="linear" slope="0" intercept="0.0"/><feFuncA type="linear" slope="0.6" intercept="0"/></feComponentTransfer></filter></defs><g id="p.19"><path fill="#000000" fill-opacity="0.0" d="m374.43832 50.657482l0 0c2.9571228 0 5.3543396 1.9073486E-5 5.3543396 4.196167E-5l0 58.330666c0 2.2888184E-5 -2.3972168 4.5776367E-5 -5.3543396 4.5776367E-5z" fill-rule="evenodd"/><path fill="#000000" fill-opacity="0.0" d="m374.43832 50.657482l0 0c2.9571228 0 5.3543396 1.9073486E-5 5.3543396 4.196167E-5l0 58.330666c0 2.2888184E-5 -2.3972168 4.5776367E-5 -5.3543396 4.5776367E-5" fill-rule="evenodd"/><path stroke="#00ff00" stroke-width="1.0" stroke-linejoin="round" stroke-linecap="butt" d="m374.43832 50.657482l0 0c2.9571228 0 5.3543396 1.9073486E-5 5.3543396 4.196167E-5l0 58.330666c0 2.2888184E-5 -2.3972168 4.5776367E-5 -5.3543396 4.5776367E-5" fill-rule="evenodd"/></g><g filter="url(#shadowFilter-p.20)"><use xlink:href="#p.20" transform=""/></g><defs><filter id="shadowFilter-p.20" filterUnits="userSpaceOnUse"><feGaussianBlur in="SourceAlpha" stdDeviation="2.5" result="blur"/><feComponentTransfer in="blur" color-interpolation-filters="sRGB"><feFuncR type="linear" slope="0" intercept="0.0"/><feFuncG type="linear" slope="0" intercept="0.0"/><feFuncB type="linear" slope="0" intercept="0.0"/><feFuncA type="linear" slope="0.6" intercept="0"/></feComponentTransfer></filter></defs><g id="p.20"><path fill="#000000" fill-opacity="0.0" d="m39.958004 108.98819l0 0c-2.9571152 0 -5.354328 -2.2888184E-5 -5.354328 -4.5776367E-5l0 -58.33066c0 -2.670288E-5 2.397213 -4.5776367E-5 5.354328 -4.5776367E-5z" fill-rule="evenodd"/><path fill="#000000" fill-opacity="0.0" d="m39.958004 108.98819l0 0c-2.9571152 0 -5.354328 -2.2888184E-5 -5.354328 -4.5776367E-5l0 -58.33066c0 -2.670288E-5 2.397213 -4.5776367E-5 5.354328 -4.5776367E-5" fill-rule="evenodd"/><path stroke="#ffff00" stroke-width="1.0" stroke-linejoin="round" stroke-linecap="butt" d="m39.958004 108.98819l0 0c-2.9571152 0 -5.354328 -2.2888184E-5 -5.354328 -4.5776367E-5l0 -58.33066c0 -2.670288E-5 2.397213 -4.5776367E-5 5.354328 -4.5776367E-5" fill-rule="evenodd"/></g><g filter="url(#shadowFilter-p.21)"><use xlink:href="#p.21" transform=""/></g><defs><filter id="shadowFilter-p.21" filterUnits="userSpaceOnUse"><feGaussianBlur in="SourceAlpha" stdDeviation="2.5" result="blur"/><feComponentTransfer in="blur" color-interpolation-filters="sRGB"><feFuncR type="linear" slope="0" intercept="0.0"/><feFuncG type="linear" slope="0" intercept="0.0"/><feFuncB type="linear" slope="0" intercept="0.0"/><feFuncA type="linear" slope="0.6" intercept="0"/></feComponentTransfer></filter></defs><g id="p.21"><path fill="#000000" fill-opacity="0.0" d="m372.4987 19.728346l27.375336 0l0 60.09449l-20.068237 0" fill-rule="evenodd"/><path stroke="#00ff00" stroke-width="1.0" stroke-linejoin="round" stroke-linecap="butt" d="m372.4987 19.728346l27.375336 0l0 60.09449l-14.068237 0" fill-rule="evenodd"/><path fill="#00ff00" stroke="#00ff00" stroke-width="1.0" stroke-linecap="butt" d="m385.8058 78.171104l-4.5381165 1.6517334l4.5381165 1.6517258z" fill-rule="evenodd"/></g><g filter="url(#shadowFilter-p.22)"><use xlink:href="#p.22" transform=""/></g><defs><filter id="shadowFilter-p.22" filterUnits="userSpaceOnUse"><feGaussianBlur in="SourceAlpha" stdDeviation="2.5" result="blur"/><feComponentTransfer in="blur" color-interpolation-filters="sRGB"><feFuncR type="linear" slope="0" intercept="0.0"/><feFuncG type="linear" slope="0" intercept="0.0"/><feFuncB type="linear" slope="0" intercept="0.0"/><feFuncA type="linear" slope="0.6" intercept="0"/></feComponentTransfer></filter></defs><g id="p.22"><path fill="#000000" fill-opacity="0.0" d="m43.78478 19.728346l-30.162724 0l0 60.09449l20.997368 0" fill-rule="evenodd"/><path stroke="#ffff00" stroke-width="1.0" stroke-linejoin="round" stroke-linecap="butt" d="m43.78478 19.728346l-30.162724 0l0 60.09449l14.997369 0" fill-rule="evenodd"/><path fill="#ffff00" stroke="#ffff00" stroke-width="1.0" stroke-linecap="butt" d="m28.619423 81.47456l4.5380974 -1.6517258l-4.5380974 -1.6517334z" fill-rule="evenodd"/></g><g filter="url(#shadowFilter-p.23)"><use xlink:href="#p.23" transform=""/></g><defs><filter id="shadowFilter-p.23" filterUnits="userSpaceOnUse"><feGaussianBlur in="SourceAlpha" stdDeviation="2.5" result="blur"/><feComponentTransfer in="blur" color-interpolation-filters="sRGB"><feFuncR type="linear" slope="0" intercept="0.0"/><feFuncG type="linear" slope="0" intercept="0.0"/><feFuncB type="linear" slope="0" intercept="0.0"/><feFuncA type="linear" slope="0.6" intercept="0"/></feComponentTransfer></filter></defs><g id="p.23"><path fill="#000000" fill-opacity="0.0" d="m94.41601 50.896324l12.818901 0" fill-rule="evenodd"/><path stroke="#ffff00" stroke-width="1.0" stroke-linejoin="round" stroke-linecap="butt" d="m94.41601 50.896324l6.818901 0" fill-rule="evenodd"/><path fill="#ffff00" stroke="#ffff00" stroke-width="1.0" stroke-linecap="butt" d="m101.23491 52.548058l4.5380936 -1.6517334l-4.5380936 -1.6517296z" fill-rule="evenodd"/></g><g filter="url(#shadowFilter-p.24)"><use xlink:href="#p.24" transform=""/></g><defs><filter id="shadowFilter-p.24" filterUnits="userSpaceOnUse"><feGaussianBlur in="SourceAlpha" stdDeviation="2.5" result="blur"/><feComponentTransfer in="blur" color-interpolation-filters="sRGB"><feFuncR type="linear" slope="0" intercept="0.0"/><feFuncG type="linear" slope="0" intercept="0.0"/><feFuncB type="linear" slope="0" intercept="0.0"/><feFuncA type="linear" slope="0.6" intercept="0"/></feComponentTransfer></filter></defs><g id="p.24"><path fill="#000000" fill-opacity="0.0" d="m94.41601 69.98819l12.818901 0" fill-rule="evenodd"/><path stroke="#ffff00" stroke-width="1.0" stroke-linejoin="round" stroke-linecap="butt" d="m94.41601 69.98819l6.818901 0" fill-rule="evenodd"/><path fill="#ffff00" stroke="#ffff00" stroke-width="1.0" stroke-linecap="butt" d="m101.23491 71.63992l4.5380936 -1.6517334l-4.5380936 -1.6517334z" fill-rule="evenodd"/></g><g filter="url(#shadowFilter-p.25)"><use xlink:href="#p.25" transform=""/></g><defs><filter id="shadowFilter-p.25" filterUnits="userSpaceOnUse"><feGaussianBlur in="SourceAlpha" stdDeviation="2.5" result="blur"/><feComponentTransfer in="blur" color-interpolation-filters="sRGB"><feFuncR type="linear" slope="0" intercept="0.0"/><feFuncG type="linear" slope="0" intercept="0.0"/><feFuncB type="linear" slope="0" intercept="0.0"/><feFuncA type="linear" slope="0.6" intercept="0"/></feComponentTransfer></filter></defs><g id="p.25"><path fill="#000000" fill-opacity="0.0" d="m94.41601 89.08268l12.818901 0" fill-rule="evenodd"/><path stroke="#ffff00" stroke-width="1.0" stroke-linejoin="round" stroke-linecap="butt" d="m94.41601 89.08268l6.818901 0" fill-rule="evenodd"/><path fill="#ffff00" stroke="#ffff00" stroke-width="1.0" stroke-linecap="butt" d="m101.23491 90.73441l4.5380936 -1.6517334l-4.5380936 -1.6517334z" fill-rule="evenodd"/></g><g filter="url(#shadowFilter-p.26)"><use xlink:href="#p.26" transform=""/></g><defs><filter id="shadowFilter-p.26" filterUnits="userSpaceOnUse"><feGaussianBlur in="SourceAlpha" stdDeviation="2.5" result="blur"/><feComponentTransfer in="blur" color-interpolation-filters="sRGB"><feFuncR type="linear" slope="0" intercept="0.0"/><feFuncG type="linear" slope="0" intercept="0.0"/><feFuncB type="linear" slope="0" intercept="0.0"/><feFuncA type="linear" slope="0.6" intercept="0"/></feComponentTransfer></filter></defs><g id="p.26"><path fill="#000000" fill-opacity="0.0" d="m94.41601 108.17454l12.818901 0" fill-rule="evenodd"/><path stroke="#ffff00" stroke-width="1.0" stroke-linejoin="round" stroke-linecap="butt" d="m94.41601 108.17454l6.818901 0" fill-rule="evenodd"/><path fill="#ffff00" stroke="#ffff00" stroke-width="1.0" stroke-linecap="butt" d="m101.23491 109.82627l4.5380936 -1.6517334l-4.5380936 -1.6517258z" fill-rule="evenodd"/></g><g filter="url(#shadowFilter-p.27)"><use xlink:href="#p.27" transform=""/></g><defs><filter id="shadowFilter-p.27" filterUnits="userSpaceOnUse"><feGaussianBlur in="SourceAlpha" stdDeviation="2.5" result="blur"/><feComponentTransfer in="blur" color-interpolation-filters="sRGB"><feFuncR type="linear" slope="0" intercept="0.0"/><feFuncG type="linear" slope="0" intercept="0.0"/><feFuncB type="linear" slope="0" intercept="0.0"/><feFuncA type="linear" slope="0.6" intercept="0"/></feComponentTransfer></filter></defs><g id="p.27"><path fill="#000000" fill-opacity="0.0" d="m321.64566 108.17454l-12.818878 0" fill-rule="evenodd"/><path stroke="#00ff00" stroke-width="1.0" stroke-linejoin="round" stroke-linecap="butt" d="m321.64566 108.17454l-6.818878 0" fill-rule="evenodd"/><path fill="#00ff00" stroke="#00ff00" stroke-width="1.0" stroke-linecap="butt" d="m314.82678 106.52281l-4.5381165 1.6517258l4.5381165 1.6517334z" fill-rule="evenodd"/></g><g filter="url(#shadowFilter-p.28)"><use xlink:href="#p.28" transform=""/></g><defs><filter id="shadowFilter-p.28" filterUnits="userSpaceOnUse"><feGaussianBlur in="SourceAlpha" stdDeviation="2.5" result="blur"/><feComponentTransfer in="blur" color-interpolation-filters="sRGB"><feFuncR type="linear" slope="0" intercept="0.0"/><feFuncG type="linear" slope="0" intercept="0.0"/><feFuncB type="linear" slope="0" intercept="0.0"/><feFuncA type="linear" slope="0.6" intercept="0"/></feComponentTransfer></filter></defs><g id="p.28"><path fill="#000000" fill-opacity="0.0" d="m321.64566 89.08268l-12.818878 0" fill-rule="evenodd"/><path stroke="#00ff00" stroke-width="1.0" stroke-linejoin="round" stroke-linecap="butt" d="m321.64566 89.08268l-6.818878 0" fill-rule="evenodd"/><path fill="#00ff00" stroke="#00ff00" stroke-width="1.0" stroke-linecap="butt" d="m314.82678 87.43095l-4.5381165 1.6517334l4.5381165 1.6517334z" fill-rule="evenodd"/></g><g filter="url(#shadowFilter-p.29)"><use xlink:href="#p.29" transform=""/></g><defs><filter id="shadowFilter-p.29" filterUnits="userSpaceOnUse"><feGaussianBlur in="SourceAlpha" stdDeviation="2.5" result="blur"/><feComponentTransfer in="blur" color-interpolation-filters="sRGB"><feFuncR type="linear" slope="0" intercept="0.0"/><feFuncG type="linear" slope="0" intercept="0.0"/><feFuncB type="linear" slope="0" intercept="0.0"/><feFuncA type="linear" slope="0.6" intercept="0"/></feComponentTransfer></filter></defs><g id="p.29"><path fill="#000000" fill-opacity="0.0" d="m321.64566 69.98819l-12.818878 0" fill-rule="evenodd"/><path stroke="#00ff00" stroke-width="1.0" stroke-linejoin="round" stroke-linecap="butt" d="m321.64566 69.98819l-6.818878 0" fill-rule="evenodd"/><path fill="#00ff00" stroke="#00ff00" stroke-width="1.0" stroke-linecap="butt" d="m314.82678 68.33646l-4.5381165 1.6517334l4.5381165 1.6517334z" fill-rule="evenodd"/></g><g filter="url(#shadowFilter-p.30)"><use xlink:href="#p.30" transform=""/></g><defs><filter id="shadowFilter-p.30" filterUnits="userSpaceOnUse"><feGaussianBlur in="SourceAlpha" stdDeviation="2.5" result="blur"/><feComponentTransfer in="blur" color-interpolation-filters="sRGB"><feFuncR type="linear" slope="0" intercept="0.0"/><feFuncG type="linear" slope="0" intercept="0.0"/><feFuncB type="linear" slope="0" intercept="0.0"/><feFuncA type="linear" slope="0.6" intercept="0"/></feComponentTransfer></filter></defs><g id="p.30"><path fill="#000000" fill-opacity="0.0" d="m321.64566 50.896324l-12.818878 0" fill-rule="evenodd"/><path stroke="#00ff00" stroke-width="1.0" stroke-linejoin="round" stroke-linecap="butt" d="m321.64566 50.896324l-6.818878 0" fill-rule="evenodd"/><path fill="#00ff00" stroke="#00ff00" stroke-width="1.0" stroke-linecap="butt" d="m314.82678 49.244595l-4.5381165 1.6517296l4.5381165 1.6517334z" fill-rule="evenodd"/></g><g filter="url(#shadowFilter-p.31)"><use xlink:href="#p.31" transform=""/></g><defs><filter id="shadowFilter-p.31" filterUnits="userSpaceOnUse"><feGaussianBlur in="SourceAlpha" stdDeviation="2.5" result="blur"/><feComponentTransfer in="blur" color-interpolation-filters="sRGB"><feFuncR type="linear" slope="0" intercept="0.0"/><feFuncG type="linear" slope="0" intercept="0.0"/><feFuncB type="linear" slope="0" intercept="0.0"/><feFuncA type="linear" slope="0.6" intercept="0"/></feComponentTransfer></filter></defs><g id="p.31"><path fill="#000000" fill-opacity="0.0" d="m173.42465 70.84121l69.44882 0" fill-rule="evenodd"/><path stroke="#ffffff" stroke-width="1.0" stroke-linejoin="round" stroke-linecap="butt" d="m179.42464 70.84121l57.448822 0" fill-rule="evenodd"/><path fill="#ffffff" stroke="#ffffff" stroke-width="1.0" stroke-linecap="butt" d="m179.42464 69.189476l-4.538086 1.6517334l4.538086 1.6517334z" fill-rule="evenodd"/><path fill="#ffffff" stroke="#ffffff" stroke-width="1.0" stroke-linecap="butt" d="m236.87346 72.49294l4.538101 -1.6517334l-4.538101 -1.6517334z" fill-rule="evenodd"/></g><g filter="url(#shadowFilter-p.32)"><use xlink:href="#p.32" transform=""/></g><defs><filter id="shadowFilter-p.32" filterUnits="userSpaceOnUse"><feGaussianBlur in="SourceAlpha" stdDeviation="2.5" result="blur"/><feComponentTransfer in="blur" color-interpolation-filters="sRGB"><feFuncR type="linear" slope="0" intercept="0.0"/><feFuncG type="linear" slope="0" intercept="0.0"/><feFuncB type="linear" slope="0" intercept="0.0"/><feFuncA type="linear" slope="0.6" intercept="0"/></feComponentTransfer></filter></defs><g id="p.32"><path fill="#000000" fill-opacity="0.0" d="m173.42465 108.17454l69.44882 0" fill-rule="evenodd"/><path stroke="#ffffff" stroke-width="1.0" stroke-linejoin="round" stroke-linecap="butt" d="m179.42464 108.17454l57.448822 0" fill-rule="evenodd"/><path fill="#ffffff" stroke="#ffffff" stroke-width="1.0" stroke-linecap="butt" d="m179.42464 106.52281l-4.538086 1.6517258l4.538086 1.6517334z" fill-rule="evenodd"/><path fill="#ffffff" stroke="#ffffff" stroke-width="1.0" stroke-linecap="butt" d="m236.87346 109.82627l4.538101 -1.6517334l-4.538101 -1.6517258z" fill-rule="evenodd"/></g></g></svg>